<?xml version="1.0" standalone="no"?>
<!DOCTYPE svg PUBLIC "-//W3C//DTD SVG 1.1//EN" "http://www.w3.org/Graphics/SVG/1.1/DTD/svg11.dtd" >
<svg xmlns="http://www.w3.org/2000/svg">
<metadata>
This is a custom SVG webfont generated by Font Squirrel.
Copyright   : Copyright C 2000 PsyOps Type Foundry and C 2000 Emigre Inc All rights reserved Designed by Rodrigo Cavazos
</metadata>
<defs>
<font id="EideticNeoBlack" horiz-adv-x="1011" >
<font-face units-per-em="2048" ascent="1638" descent="-410" />
<missing-glyph horiz-adv-x="399" />
<glyph unicode=" "  horiz-adv-x="399" />
<glyph unicode="&#x09;" horiz-adv-x="399" />
<glyph unicode="&#xa0;" horiz-adv-x="399" />
<glyph unicode="!" horiz-adv-x="530" d="M115 1194q-6 47 32.5 84t116.5 37q80 0 118 -37t32 -84l-97 -827q0 -23 -20 -23h-66q-16 0 -20 23zM141 76q0 55 43 93t95 38q47 0 79.5 -27.5t32.5 -73.5q0 -53 -43 -89.5t-98 -36.5q-45 0 -77 26.5t-32 69.5z" />
<glyph unicode="&#x22;" horiz-adv-x="677" d="M68 1311q-4 37 24.5 60.5t81.5 23.5q55 0 84 -23.5t23 -60.5l-60 -426q0 -20 -18 -21h-58q-14 0 -18 21zM395 1311q-4 37 25 60.5t82 23.5q55 0 83.5 -23.5t22.5 -60.5l-59 -426q0 -20 -19 -21h-57q-14 0 -18 21z" />
<glyph unicode="#" horiz-adv-x="811" d="M68 293v31q0 16 16 16l90 -2l27 231l-117 -2q-16 0 -16 15v30q0 16 16 17l123 -2l31 262q0 14 16 14h129q8 0 13 -4t3 -10l-32 -262h118l31 262q0 14 14 14h132q6 0 12 -4t4 -10l-35 -262l86 2q14 0 14 -17v-30q0 -14 -14 -15l-92 2l-31 -231l123 2q14 0 14 -16v-31 q0 -14 -14 -14l-129 2l-37 -285q-4 -16 -16 -16h-119q-20 0 -16 16l32 285h-122l-37 -285q-4 -16 -15 -16h-120q-18 0 -15 16l33 285l-84 -2q-16 0 -16 14zM330 338h123l26 231h-121z" />
<glyph unicode="$" horiz-adv-x="1069" d="M102 858q0 143 94.5 225t270.5 82h27l10 195q0 18 20 18l97 -6q16 0 16 -20l-19 -197q35 -4 110 -13t114 -12q33 -4 32 -24l3 -324q0 -25 -27 -24q-25 0 -25 18q-25 162 -110.5 231.5t-241.5 69.5q-53 0 -106.5 -42t-53.5 -109q0 -84 66.5 -134.5t162 -79t190.5 -65.5 t162 -121t67 -215q0 -164 -108 -247.5t-296 -83.5h-20l-15 -226q0 -20 -16 -20l-103 6q-18 0 -14 22l21 222q-43 4 -119 15t-115 15q-10 0 -22.5 9.5t-12.5 15.5l-30 299q0 6 8 14t18 8q18 0 25 -16q55 -162 141 -221.5t240 -59.5q72 0 139.5 48.5t67.5 140.5 q0 74 -48.5 123t-120 71.5t-155.5 54t-155.5 65.5t-120 108.5t-48.5 183.5z" />
<glyph unicode="%" horiz-adv-x="1628" d="M100 928q0 133 89.5 218t222.5 85t222 -85t89 -218t-89 -220t-222 -87t-222.5 87t-89.5 220zM285 927.5q0 -106.5 33.5 -168t93 -61.5t93.5 61.5t34 168t-34 166t-93.5 59.5t-93 -59.5t-33.5 -166zM432 4l655 1243q6 12 21 6l84 -41q14 -8 6 -20l-663 -1239 q-6 -12 -21 -6l-76 37q-12 8 -6 20zM905 280.5q0 133.5 89 220.5t222.5 87t222.5 -87t89 -220.5t-89 -218.5t-222.5 -85t-222.5 85t-89 218.5zM1090 280.5q0 -106.5 33.5 -166t93 -59.5t93 59.5t33.5 166t-33.5 168t-93 61.5t-93 -61.5t-33.5 -168z" />
<glyph unicode="&#x26;" horiz-adv-x="1306" d="M102 293q0 172 191 321q-68 121 -66 230q4 123 79 191.5t216 68.5l248 -12q16 0 18 -21l19 -244q2 -25 -21 -24q-20 0 -24 18q-20 98 -83 153.5t-134 55.5q-49 0 -82 -36t-33 -85q0 -264 418 -594q33 92 33 187q0 31 -17 51q-4 4 -9 8t-8 7l-6 6q-3 3 -5 7.5t-2 10.5 q0 14 30 14h361q31 0 30 -18q0 -16 -30 -23l-27 -4q-66 -10 -84 -84q-39 -143 -131 -266q150 -104 307 -186q6 -4 8 -10.5t-1 -10.5t-11 -4h-295q-18 0 -39 10q-51 29 -104 70q-143 -100 -371 -100q-186 0 -280.5 90t-94.5 223zM344 332q2 -252 199 -252q111 0 198 80 q-178 125 -354 334q-43 -56 -43 -162z" />
<glyph unicode="'" horiz-adv-x="350" d="M68 1311q-4 37 24.5 60.5t81.5 23.5q55 0 84 -23.5t23 -60.5l-60 -426q-2 -20 -18 -21h-58q-14 0 -18 21z" />
<glyph unicode="(" horiz-adv-x="569" d="M109 548.5q0 325.5 117.5 531.5t275.5 253q12 4 18 -6l29 -57q6 -14 -8 -19q-205 -94 -205 -702t205 -703q14 -4 8 -18l-29 -57q-6 -10 -18 -7q-158 47 -275.5 253t-117.5 531.5z" />
<glyph unicode=")" horiz-adv-x="569" d="M16 -172q-6 14 9 18q82 37 132 171.5t63 262.5t13 269t-13 269t-63.5 262t-131.5 171q-14 4 -9 19l29 57q6 10 18 6q158 -47 278 -253t120 -531.5t-120 -531t-278 -253.5q-12 -4 -18 7z" />
<glyph unicode="*" horiz-adv-x="958" d="M53.5 948q-14.5 35 -0.5 78q16 45 47 65.5t66 8.5q39 -12 92 -51l164 -97q6 -2 11 1t3 10q-25 137 -41 186q-20 66 -20 102.5t29.5 60t74.5 23.5t75 -23.5t30 -60.5t-21 -102l-41 -186q-2 -6 3 -9.5t12 -1.5q123 66 163 97q51 37 93 51q35 10 66.5 -9.5t45.5 -64.5 q14 -43 0 -79t-49 -46q-35 -12 -102 -12l-191 -19q-6 0 -8 -6t2 -10q102 -96 143 -127q53 -39 76 -72q23 -29 13.5 -65.5t-48.5 -63.5q-37 -27 -74.5 -24.5t-58.5 30.5q-25 37 -43 97l-78 174q-4 6 -9 6t-7 -6q-61 -125 -78 -174q-18 -61 -43 -97q-20 -29 -58 -30.5 t-75 24.5q-39 27 -48 64t13 65q18 31 76 72l143 127q4 4 2 10t-8 6q-137 18 -190 19q-68 0 -102.5 12t-49 47z" />
<glyph unicode="+" horiz-adv-x="929" d="M57 397v123q0 8 7.5 14.5t13.5 6.5l280 -4l-8 276q0 20 21 21h184q25 0 25 -21l-9 -276l277 4q25 0 24 -21v-123q0 -8 -7 -14t-13 -6l-281 4l9 -277q0 -20 -21 -20h-184q-8 0 -16.5 6t-8.5 14l8 277l-276 -4q-8 0 -16.5 6t-8.5 14z" />
<glyph unicode="," horiz-adv-x="448" d="M70 66q0 59 47 93t102 34q63 0 107.5 -44.5t44.5 -117.5q0 -131 -119 -246q-16 -16 -56 -40t-61 -24q-10 0 -17 10.5t-7 20.5q0 6 20 23q23 18 41 41q57 61 57 135q0 31 -36 31h-35q-37 0 -62.5 23.5t-25.5 60.5z" />
<glyph unicode="-" horiz-adv-x="536" d="M57 397v123q0 20 21 21l190 -4l191 4q20 0 20 -21v-123q0 -20 -20 -20l-191 4l-190 -4q-21 0 -21 20z" />
<glyph unicode="." horiz-adv-x="440" d="M88 82q0 55 47 94t103 39q45 0 79.5 -27.5t34.5 -72.5q0 -53 -47 -92t-102 -39q-47 0 -81 26.5t-34 71.5z" />
<glyph unicode="/" horiz-adv-x="743" d="M0 33l643 1222q10 18 29 9l63 -33q18 -10 8 -29l-655 -1214q-10 -18 -27 -8l-53 28q-16 11 -8 25z" />
<glyph unicode="0" horiz-adv-x="1173" d="M94 428q0 201 132 327t359.5 126t360.5 -126t133 -327t-133 -324.5t-360.5 -123.5t-359.5 123.5t-132 324.5zM360 428q0 -166 62.5 -262t165 -96t164 95t61.5 263t-62.5 265.5t-165 97.5t-164 -97.5t-61.5 -265.5z" />
<glyph unicode="1" horiz-adv-x="845" d="M23 807q0 31 30 35l500 49q33 4 33 -25q0 -8 -3 -47t-3 -71v-605q0 -68 67 -75l125 -17q33 -4 33 -26q0 -25 -33 -25h-684q-33 0 -33 25q0 23 33 26l145 17q68 8 68 75v596q0 23 -13.5 38.5t-35.5 13.5l-195 -17q-14 -2 -24 8.5t-10 24.5z" />
<glyph unicode="2" horiz-adv-x="931" d="M53 25q0 20 25 41q186 156 366 385q57 76 58 155q0 158 -152 158q-47 0 -111.5 -34t-99.5 -75q-12 -12 -20 -4l-45 49q-8 8 0 19q139 162 393 162q154 0 248 -69t94 -181q0 -172 -164 -301l-258 -203q-6 -4 -3 -14.5t13 -8.5l396 64q31 4 30 -21v-235q0 -33 -20.5 -33 t-26.5 33q-23 88 -108 88h-588q-27 0 -27 25z" />
<glyph unicode="3" horiz-adv-x="987" d="M68 569l2 248q0 27 26 27q33 2 132.5 19.5t205.5 17.5q170 0 273.5 -63.5t103.5 -205.5q0 -164 -158 -280q117 -33 188.5 -116t71.5 -202q0 -115 -45 -199.5t-120.5 -130.5t-160.5 -68t-181 -22q-197 0 -316 37q-16 6 -12 25l12 57q4 18 25 15q119 -27 243 -27 q131 0 204 78t73 225q0 113 -78 177.5t-184 64.5h-82q-27 0 -27 45q0 37 19 39q248 27 247 270q0 80 -53 127t-137 47q-76 0 -140.5 -50t-80.5 -161q-4 -18 -27 -18q-24 -1 -24 24z" />
<glyph unicode="4" horiz-adv-x="1116" d="M20.5 14.5q-2.5 14.5 6.5 22.5l649 881q4 8 14 8h156q20 0 20 -19v-766h193q23 0 18 -20l-18 -98q-4 -23 -23 -23h-170v-334q0 -18 -16 -22l-201 -47q-29 -8 -28 22v381h-586q-12 0 -14.5 14.5zM303 150.5q4 -9.5 14 -9.5h304v469q0 10 -5.5 12.5t-9.5 -6.5l-301 -450 q-6 -6 -2 -15.5z" />
<glyph unicode="5" horiz-adv-x="1009" d="M94 305l66 524q6 47 53 45l469 -14q47 -2 66.5 18.5t35.5 69.5q8 33 31 33q31 0 27 -33l-21 -321q-2 -23 -33 -23l-477 33q-23 2 -26 -19l-29 -180q-2 -8 3 -15t11 -5q74 14 185 14q203 0 338 -103.5t135 -295.5q0 -154 -79 -256.5t-192.5 -142.5t-253.5 -40 q-188 0 -297 35q-14 6 -10 25l15 59q4 18 24 13q94 -25 223 -25q121 0 207 74.5t86 232.5q0 154 -85 229.5t-210 75.5q-100 0 -159 -28q-35 -14 -43 -13l-43 11q-21 6 -17 22z" />
<glyph unicode="6" horiz-adv-x="1120" d="M90 561q0 178 59.5 330.5t191.5 255t318 102.5q115 0 175 -18q16 -6 14 -21l-8 -45q-4 -20 -21 -16q-82 8 -137 8q-125 0 -217 -140t-98 -312q0 -8 7 -11.5t13 0.5q106 55 229 56q176 0 295 -99.5t119 -271.5q0 -195 -129 -297t-330 -102q-135 0 -232 49t-149.5 135 t-76 183t-23.5 214zM373 469q0 -100 21.5 -186t76.5 -147.5t135 -61.5q145 0 146 286q0 106 -49.5 194.5t-147.5 88.5q-76 0 -129 -52t-53 -122z" />
<glyph unicode="7" horiz-adv-x="995" d="M74 469v362q0 33 24 33q14 0 64.5 -2t73.5 -2h645q47 0 47 -31q0 -10 -10 -41l-402 -1163q-8 -23 -29 -22h-211q-14 0 -18 13t2 24l424 944q6 14 1 25.5t-23 11.5h-429q-78 0 -90 -68l-14 -84q-8 -33 -29 -33q-10 0 -18 10.5t-8 22.5z" />
<glyph unicode="8" horiz-adv-x="1169" d="M94 342q0 88 54.5 172t168.5 143q-168 92 -167 271q0 147 106 234t301 87q430 0 430 -288q0 -86 -50 -167t-138 -120q272 -125 272 -340q0 -174 -128 -264t-349 -90q-248 0 -374 99t-126 263zM348 373q0 -137 70.5 -216t191.5 -79q78 0 148.5 52t70.5 153q0 115 -147 202 q-31 18 -65.5 35t-82 35t-69.5 29q-49 -41 -83 -103.5t-34 -107.5zM381 991q0 -98 56.5 -148t168.5 -93l43 -17q102 92 103 207q0 211 -197 211q-66 0 -120 -42t-54 -118z" />
<glyph unicode="9" horiz-adv-x="1140" d="M100 481q0 195 129 297.5t330 102.5q135 0 232.5 -49.5t149.5 -135.5t75.5 -183t23.5 -214q0 -319 -196.5 -504.5t-509.5 -200.5q-16 0 -21 19l-4 45q0 8 7.5 15.5t13.5 7.5q180 23 307 159.5t127 313.5q0 8 -7 12t-14 0q-106 -55 -229 -55q-176 0 -295 99t-119 271z M379 500q0 -106 49 -194.5t147 -88.5q76 0 129.5 52.5t53.5 121.5q0 100 -21.5 186.5t-77 147.5t-135.5 61q-145 1 -145 -286z" />
<glyph unicode=":" horiz-adv-x="481" d="M109 82q0 55 47 94t104 39q45 0 79 -27.5t34 -72.5q0 -53 -47 -92t-103 -39q-45 0 -79.5 26.5t-34.5 71.5zM109 733q0 55 47 94t104 39q45 0 79 -27.5t34 -72.5q0 -53 -47 -92t-103 -39q-45 0 -79.5 26.5t-34.5 71.5z" />
<glyph unicode=";" horiz-adv-x="489" d="M94 66q0 59 47 93t103 34q63 0 107 -44.5t44 -117.5q0 -131 -119 -246q-16 -16 -56 -40t-60 -24q-10 0 -17.5 10.5t-7.5 20.5q0 6 21 23q23 18 41 41q57 61 57 135q0 31 -37 31h-35q-37 0 -62.5 23.5t-25.5 60.5zM113 655q0 55 47 94t102 39q45 0 80 -27.5t35 -70.5 q0 -55 -47 -94t-103 -39q-47 0 -80.5 26.5t-33.5 71.5z" />
<glyph unicode="&#x3c;" horiz-adv-x="780" d="M68 449v38q0 16 12 25l579 336q8 4 15.5 0t7.5 -12v-134q0 -18 -16 -28l-373 -207l373 -205q16 -10 16 -29v-133q0 -8 -7 -12t-16 0l-579 336q-12 9 -12 25z" />
<glyph unicode="=" horiz-adv-x="827" d="M88 242v147q0 20 21 21l303 -11l303 11q25 0 24 -21v-147q0 -8 -7 -14.5t-13 -6.5l-307 10l-299 -10q-25 1 -25 21zM88 582v147q0 20 21 21l303 -11l303 11q25 0 24 -21v-147q0 -8 -7 -14.5t-13 -6.5l-307 10l-299 -10q-25 1 -25 21z" />
<glyph unicode="&#x3e;" horiz-adv-x="782" d="M98 702v134q0 8 8.5 12t16.5 0l579 -336q12 -8 13 -25v-38q0 -16 -13 -25l-579 -336q-8 -4 -15.5 0t-7.5 12v133q0 18 17 29l372 205l-372 207q-19 10 -19 28z" />
<glyph unicode="?" horiz-adv-x="737" d="M57 1188q-14 29 9 41q98 59 259.5 59t253 -67.5t91.5 -190.5q0 -72 -41 -142.5t-90.5 -116.5t-126 -113.5t-113.5 -106.5q-61 -68 -61 -115q0 -33 30 -94q6 -12 -2 -26.5t-24 -20.5q-41 -14 -74 45q-41 68 -41 135q0 102 55 178l129 181q80 109 80 206q0 84 -43 120 t-104 36q-86 0 -135 -27q-36 -20 -52 19zM133 84q0 55 43 93t94 38q47 0 80 -27.5t33 -72.5q0 -53 -43 -90t-98 -37q-47 0 -78 26.5t-31 69.5z" />
<glyph unicode="@" horiz-adv-x="1402" d="M109 410q0 117 59 235.5t164.5 215.5t268.5 157.5t351 60.5q154 0 227.5 -59t73.5 -201v-592q0 -25 -26 -24q-23 0 -45 16l-54 41q-18 14 -30 14q-16 0 -37 -12q-43 -31 -66.5 -44t-65.5 -24.5t-98 -11.5q-133 0 -202.5 62.5t-69.5 161.5q0 141 119 208q31 16 101.5 51 t107.5 56q49 27 85 72t36 90q0 53 -31 79.5t-70 26.5q-115 0 -237.5 -65.5t-215 -200.5t-92.5 -299q0 -115 36 -200t95.5 -130t123 -65.5t131.5 -20.5q156 0 348 78q12 4 18 -6l19 -45q6 -18 -11 -25q-80 -43 -208 -71.5t-228 -28.5q-270 0 -423.5 129t-153.5 371zM793 397 q0 -127 110 -127q119 0 119 146v225q0 12 -9 17.5t-20 -1.5l-86 -57q-114 -76 -114 -203z" />
<glyph unicode="A" horiz-adv-x="1247" d="M-45 18q0 16 33 25l43 12q43 12 55 43l434 1131q8 20 98.5 20t100.5 -20l457 -1133q14 -35 55 -43l55 -10q33 -4 33 -25q0 -18 -33 -18h-538q-33 0 -33 18q0 16 33 25l63 12q33 6 44 28.5t1 43.5l-74 203q-6 16 -24 16h-373q-18 0 -25 -16l-79 -232q-2 -6 -4.5 -14 t-4.5 -13t-2 -8q0 -18 15 -26q16 -10 16 -19q0 -18 -35 -18h-278q-33 0 -33 18zM408 463q-2 -5 -3 -10q0 -11 17 -11h299q15 0 15 11q0 4 -3 10l-145 395q-6 16 -22.5 16t-22.5 -16z" />
<glyph unicode="B" horiz-adv-x="1288" d="M29 1208q0 20 32 21h746q127 0 208 -78t81 -193q0 -170 -150 -249q-10 -4 -11 -14.5t9 -14.5q109 -33 177.5 -123t68.5 -205q0 -147 -109.5 -249.5t-277.5 -102.5h-717q-33 0 -33 18q0 16 33 25l64 12q29 4 46 30t17 62l2 476l-2 458q0 37 -19.5 62.5t-48.5 30.5l-84 12 q-32 4 -32 22zM498 584l2 -389q0 -51 27.5 -76t105.5 -25q135 0 199.5 60.5t64.5 191.5q0 117 -65.5 193.5t-157.5 76.5h-137q-14 0 -26.5 -9t-12.5 -23zM498 735q0 -14 12 -24.5t27 -10.5h98q74 0 124 71t50 171q0 197 -217 197h-37q-20 0 -37.5 -14.5t-17.5 -32.5z" />
<glyph unicode="C" horiz-adv-x="1185" d="M109 616q0 287 151.5 460t401.5 173q88 0 224 -14t146 -14q8 0 16.5 -9.5t8.5 -17.5v-334q0 -12 -8.5 -20.5t-16.5 -8.5q-23 0 -28 23q-39 158 -114 229.5t-224 71.5q-252 0 -252 -567q0 -82 12 -162t42 -165t90 -136t147 -51q129 0 204.5 72.5t112.5 218.5q2 18 29 18 q29 0 26 -25l-18 -315q0 -23 -31 -27q-23 -2 -86 -12t-128.5 -17t-129.5 -7q-266 0 -420.5 161.5t-154.5 474.5z" />
<glyph unicode="D" horiz-adv-x="1329" d="M29 1208q0 20 32 21h652q213 0 360.5 -152.5t147.5 -433.5q0 -272 -145.5 -457.5t-409.5 -185.5h-584q-33 0 -33 18q0 16 33 25l63 12q29 4 48.5 30t19.5 62l2 465l-2 469q0 37 -19.5 62.5t-48.5 30.5l-84 12q-32 4 -32 22zM498 612l2 -428q0 -96 73 -96q90 0 156 36 t100.5 88t54 135t24.5 149.5t5 156.5q0 260 -93 373t-242 113h-21q-20 0 -38.5 -14.5t-18.5 -32.5z" />
<glyph unicode="E" horiz-adv-x="1189" d="M29 1208q0 20 32 21h965q18 0 23 -25l22 -297q2 -12 -5 -20t-15 -8q-20 0 -29 22q-53 135 -111.5 182t-167.5 47h-192q-20 0 -35.5 -14t-15.5 -33l-2 -358q0 -14 14 -14l346 10q20 0 21 -21v-118q0 -20 -21 -21l-348 10q-12 0 -12 -16l2 -420q0 -14 11 -25.5t28 -11.5 l243 4q76 2 126 17.5t80 56.5t43 76t34 108q6 27 33 27q12 0 20 -12q5 -8 6 -21q0 -6 -2 -14l-49 -317q-4 -23 -29 -23h-894q-33 0 -33 18q0 16 33 25q63 14 63 92l2 481l-2 465q0 37 -19.5 62.5t-48.5 30.5l-84 12q-32 4 -32 22z" />
<glyph unicode="F" horiz-adv-x="1097" d="M29 1208q0 20 32 21h965q18 0 23 -25l22 -289q2 -12 -5 -20t-15 -8q-20 0 -29 22q-53 135 -115.5 178t-191.5 43h-164q-20 0 -35.5 -14t-15.5 -33l-2 -358q0 -14 14 -14l346 10q20 0 21 -21v-118q0 -20 -21 -21l-348 10q-12 0 -12 -16l2 -412q0 -35 20.5 -59.5 t48.5 -28.5l64 -12q33 -8 33 -25q0 -18 -33 -18h-483q-33 0 -33 18q0 16 33 25q63 14 63 88l2 485l-2 465q0 37 -19.5 62.5t-48.5 30.5l-84 12q-32 4 -32 22z" />
<glyph unicode="G" horiz-adv-x="1320" d="M109 616q0 287 151.5 460t401.5 173q78 0 214 -13t152 -15q8 0 16.5 -9.5t8.5 -17.5v-330q0 -12 -8.5 -20t-16.5 -8q-23 0 -29 22q-37 154 -115.5 225.5t-217.5 71.5q-252 0 -252 -567q0 -84 11 -162t39 -162t88 -135t144 -51q68 0 124.5 61.5t56.5 151.5v176 q0 51 -23 74q-27 27 -27 37q0 23 27 22h416q27 0 26 -20q0 -16 -26 -23l-64 -16q-68 -18 -67 -92v-371q0 -39 16 -55q10 -6 10 -19q0 -18 -18 -18q-8 0 -27 6l-145 55q-31 10 -47 -4q-37 -27 -106.5 -45t-133.5 -18q-266 0 -422.5 162.5t-156.5 473.5z" />
<glyph unicode="H" horiz-adv-x="1419" d="M29 18q0 20 32 25l84 12q29 4 48.5 30t19.5 62l2 469l-2 465q0 37 -19.5 62.5t-48.5 30.5l-84 12q-33 4 -32 22q0 20 32 21h578q33 0 33 -19q0 -16 -33 -24l-72 -12q-29 -4 -48 -30t-19 -63l-2 -385q0 -14 14 -14h395q14 0 15 14l-2 385q0 37 -19.5 62.5t-48.5 30.5 l-72 12q-33 8 -32 22q0 20 32 21h578q33 0 33 -19q0 -20 -33 -24l-84 -12q-29 -4 -48.5 -30t-19.5 -63l-2 -465l2 -469q0 -37 19.5 -62.5t48.5 -29.5l84 -12q33 -4 33 -23q0 -20 -33 -20h-547q-33 0 -33 18q0 16 33 25l41 12q68 18 68 92l2 426q0 14 -17 15h-393 q-14 0 -14 -15l2 -426q0 -37 19.5 -62.5t47.5 -29.5l76 -12q33 -4 33 -23q0 -20 -33 -20h-582q-32 0 -32 18z" />
<glyph unicode="I" horiz-adv-x="778" d="M59 18q0 20 33 25l84 12q68 10 68 92l6 469l-6 465q0 82 -64 93l-84 12q-37 4 -37 22q0 20 33 21h590q37 0 37 -19q0 -20 -33 -24l-84 -12q-68 -10 -67 -93l-7 -465l7 -469q0 -82 63 -92l84 -12q37 -4 37 -23q0 -20 -33 -20h-590q-37 0 -37 18z" />
<glyph unicode="J" horiz-adv-x="743" d="M29 1208q0 20 32 21h598q35 0 35 -19q0 -16 -32 -24l-64 -12q-31 -6 -53.5 -31t-22.5 -62l-4 -467l4 -520q2 -131 -117.5 -222t-306.5 -134q-7 -1 -12 -2q-26 0 -34 32q-9 38 22 50l47 18q113 43 112 170l5 608l-5 465q0 37 -18 61.5t-47 28.5l-105 17q-34 4 -34 22z" />
<glyph unicode="K" horiz-adv-x="1302" d="M29 1212q0 16 32 17h543q33 0 33 -14.5t-33 -24.5l-39 -12q-66 -23 -65 -93l-2 -362q0 -6 6 -8t10 2l303 370q18 25 19 54q0 27 -25 41q-6 4 -17.5 8t-15.5 7t-4 9q0 23 35 23h418q33 0 33 -19q0 -14 -33 -22q-31 -6 -76 -33t-68 -49l-356 -381l438 -584q51 -70 176 -94 l23 -4q33 -8 33 -23q0 -20 -33 -20h-586q-31 0 -30 18q0 14 30 25l64 20q16 4 20 22.5t-6 35.5l-281 444l-67 -69q-10 -14 -10 -29l2 -320q0 -37 18.5 -61.5t46.5 -30.5l51 -12q31 -6 31 -23q0 -20 -31 -20h-534q-33 0 -33 18q0 16 33 25l63 12q29 4 48.5 30t19.5 62l2 469 l-2 471q0 80 -68 91l-84 12q-32 4 -32 22z" />
<glyph unicode="L" horiz-adv-x="1091" d="M29 1208q0 20 32 21h576q33 0 33 -19q0 -20 -33 -24l-68 -12q-29 -4 -49 -30t-20 -63l-2 -465l2 -493q0 -14 13 -25.5t30 -11.5l202 4q131 2 186.5 61.5t92.5 192.5q6 27 35 27q28 0 28 -31q0 -7 -2 -16l-49 -301q-4 -23 -28 -23h-858q-33 0 -33 18q0 16 33 25 q63 14 63 92l2 481l-2 467q0 37 -19.5 61.5t-48.5 29.5l-84 12q-32 4 -32 22z" />
<glyph unicode="M" horiz-adv-x="1765" d="M29 1210q0 18 32 19h408q29 0 45 -37l336 -727q8 -16 21.5 -15t19.5 15l360 727q20 37 45 37h271q27 0 26 -19q0 -6 -4 -10t-11 -9t-11 -9q-25 -25 -25 -121l-2 -445l2 -469q0 -37 20.5 -62.5t49.5 -29.5l84 -12q33 -4 33 -25q0 -18 -33 -18h-555q-35 0 -35 18 q0 16 35 25l55 12q29 6 48.5 31t19.5 61l2 469v215q0 16 -16.5 18.5t-24.5 -13.5l-377 -766q-8 -18 -45 -18.5t-47 18.5l-350 772q-6 12 -22.5 9t-16.5 -15l18 -668q2 -88 25 -119q4 -6 15 -15t11 -16q0 -18 -26 -18h-342q-33 0 -33 18q0 16 33 25l63 12q29 4 47.5 30 t20.5 62l20 734v200q0 37 -19.5 62.5t-47.5 30.5l-91 12q-32 4 -32 24z" />
<glyph unicode="N" horiz-adv-x="1390" d="M33 18q0 16 33 25l63 12q29 4 47.5 30t20.5 62l18 754v166q0 86 -47 98l-74 19q-37 8 -37 26.5t33 18.5h320q29 0 39 -17l540 -778q10 -14 23.5 -10t13.5 18l2 170l-6 469q0 37 -19.5 62.5t-48.5 30.5l-73 12q-33 8 -33 24q0 18 33 19h442q33 0 33 -19q0 -16 -33 -24 l-63 -12q-29 -4 -48.5 -30t-19.5 -61l-6 -471l4 -583q0 -37 -41 -37h-137q-27 0 -41 22l-584 858q-6 8 -15.5 6.5t-9.5 -12.5l19 -698q2 -88 22 -119q4 -8 16.5 -16t12.5 -15q0 -18 -26 -18h-340q-33 0 -33 18z" />
<glyph unicode="O" horiz-adv-x="1333" d="M109 608q0 274 144 457.5t417 183.5q279 0 417 -174t138 -454q0 -274 -142.5 -457.5t-414.5 -183.5q-279 0 -419 174.5t-140 453.5zM422 641q0 -86 3 -148.5t17.5 -148.5t40 -140t74.5 -93t119 -39q53 0 94 20.5t65.5 61.5t42 87t24.5 109.5t10 116.5t3 121q0 70 -2 122 t-10 124.5t-25.5 124t-44 100.5t-71.5 73.5t-105 24.5q-76 0 -126 -45t-72.5 -128t-29.5 -160t-7 -183z" />
<glyph unicode="P" horiz-adv-x="1171" d="M29 1208q0 20 32 21h633q193 0 313.5 -83t120.5 -259q0 -162 -129 -264.5t-372 -102.5h-90q-14 0 -26.5 -10t-12.5 -25l2 -338q0 -35 20.5 -61.5t48.5 -30.5l64 -12q33 -8 33 -25q0 -18 -33 -18h-483q-33 0 -33 18q0 16 33 25q63 14 63 92l2 500l-2 448q0 37 -19.5 61.5 t-48.5 29.5l-84 12q-32 4 -32 22zM498 643q0 -14 12 -25.5t27 -11.5h30q39 0 80 12.5t85 42t71.5 90t27.5 142.5q0 121 -72.5 183.5t-170.5 62.5h-39q-51 0 -51 -39v-457z" />
<glyph unicode="Q" horiz-adv-x="1333" d="M109 608q0 274 144 457.5t417 183.5q279 0 417 -174t138 -454q0 -240 -110.5 -413t-321.5 -216q8 -100 59 -157.5t143 -57.5q106 0 172 51q14 10 21 0l35 -47q2 -4 2 -7q0 -5 -6 -10q-106 -96 -264 -96t-271 89t-133 231q-221 35 -331.5 202.5t-110.5 417.5zM422 641 q0 -86 3 -148.5t17.5 -148.5t40 -140t74.5 -93t119 -39q53 0 94 20.5t65.5 61.5t42 87t24.5 109.5t10 116.5t3 121q0 70 -2 122t-10 124.5t-25.5 124t-44 100.5t-71.5 73.5t-105 24.5q-76 0 -126 -45t-72.5 -128t-29.5 -160t-7 -183z" />
<glyph unicode="R" horiz-adv-x="1284" d="M29 1208q0 20 34 21h715q154 0 250 -82t96 -209q0 -125 -80.5 -219t-209.5 -123q-20 -4 -5 -16q25 -18 76 -97l250 -377q33 -49 105 -49q23 0 61 9q10 2 17.5 -5.5t7.5 -17.5q0 -18 -15 -25q-49 -18 -121 -18h-292q-16 0 -21.5 5t-13.5 22l-254 485q-31 59 -70 59h-27 q-14 0 -24 -9t-10 -23l2 -392q0 -35 20.5 -60.5t48.5 -31.5l43 -10q33 -8 33 -26.5t-33 -18.5h-462q-33 0 -33 18q0 16 33 25q63 14 63 92l2 488l-2 460q0 37 -19.5 61.5t-48.5 29.5l-84 12q-32 4 -32 22zM498 696q0 -14 11 -25.5t26 -11.5q291 0 290 265q0 96 -58 155.5 t-155 59.5h-59q-20 0 -36.5 -14.5t-16.5 -32.5z" />
<glyph unicode="S" horiz-adv-x="1132" d="M106 373q0 23 23 22q20 0 27 -16q59 -170 159.5 -237.5t264.5 -67.5q78 0 147.5 49t69.5 145q0 68 -38 116t-98.5 75.5t-133 52.5t-145.5 54.5t-133.5 70.5t-98 114.5t-37.5 172.5q0 152 100 238.5t289 86.5q109 0 254 -17.5t159 -19.5q12 0 23.5 -7t11.5 -19l6 -342 q0 -25 -22.5 -25t-26.5 19q-47 313 -401 313q-57 0 -111.5 -41t-54.5 -117q0 -88 70.5 -142t172 -85t202 -71t171 -130t70.5 -233q0 -180 -123 -266t-342 -86q-90 0 -223 17t-162 19q-10 0 -22.5 9.5t-14.5 17.5z" />
<glyph unicode="T" horiz-adv-x="1163" d="M37 915v289q0 25 31 25h1028q31 0 30 -25v-289q0 -33 -22 -32q-25 0 -33 32l-22 127q-4 29 -30 48.5t-63 21.5l-202 10q-10 0 -19.5 -11t-9.5 -26l-2 -471l2 -467q0 -37 19.5 -62.5t48.5 -29.5l84 -12q33 -4 32 -23q0 -20 -32 -20h-590q-33 0 -33 18q0 20 33 25l84 12 q29 4 48 30t19 62l2 467l-2 471q0 14 -9 25.5t-19 11.5l-203 -10q-37 -2 -62.5 -21.5t-29.5 -48.5l-23 -127q-8 -33 -31 -32q-24 -1 -24 32z" />
<glyph unicode="U" horiz-adv-x="1331" d="M14 1208q0 20 33 21h551q33 0 33 -21q0 -14 -33 -22l-63 -12q-29 -4 -48.5 -30t-19.5 -63l-2 -688q0 -139 66.5 -218t168.5 -79q98 0 169 67.5t69 209.5l-6 688q0 88 -53 117q-37 20 -37 30q0 20 37 21h399q33 0 33 -21q0 -14 -33 -22l-49 -12q-70 -18 -70 -93l-14 -702 q-4 -195 -124 -297t-329 -102q-240 0 -372 101t-134 298l-8 704q0 35 -19.5 60.5t-47.5 30.5l-64 12q-33 8 -33 22z" />
<glyph unicode="V" horiz-adv-x="1224" d="M-72 1210q0 18 33 19h533q33 0 32 -19q0 -20 -32 -24l-41 -6q-66 -10 -66 -58q0 -14 8 -35l267 -718q4 -12 19 -11.5t19 11.5l234 692q12 33 12 57q0 43 -55 58l-39 10q-33 8 -33 24q0 18 33 19h348q33 0 33 -19q0 -12 -29 -24q-39 -12 -55 -56l-422 -1126 q-10 -25 -104 -24q-90 0 -103 30l-450 1123q-14 37 -58 43l-51 10q-33 8 -33 24z" />
<glyph unicode="W" horiz-adv-x="1800" d="M-14 1208q0 20 32 21h453q31 0 31 -19q0 -16 -33 -24q-31 -6 -41 -33t-4 -53l147 -676q2 -10 16.5 -9t16.5 11l256 737q10 33 90 33q70 0 80 -33l266 -735q4 -10 17.5 -10t15.5 12l160 631q8 25 8 59q0 31 -17.5 42.5t-58.5 23.5q-33 12 -32 24q0 18 32 19h332 q33 0 33 -19q0 -12 -29 -24q-45 -14 -57 -56l-332 -1130q-6 -20 -98 -20q-88 0 -94 20l-269 737q-2 8 -10 8t-12 -8l-250 -737q-6 -20 -94 -20q-92 0 -99 20l-336 1133q-10 31 -57 43l-31 8q-32 8 -32 24z" />
<glyph unicode="X" horiz-adv-x="1339" d="M-2 23q0 18 33 22l28 4q86 10 144 92l329 453q4 6 0 12l-319 481q-47 74 -135 89l-25 4q-33 4 -33 24q0 8 10.5 16.5t22.5 8.5h553q12 0 22.5 -7.5t10.5 -15.5q0 -14 -33 -24l-61 -19q-29 -10 -29 -35q0 -14 10 -28l168 -269q8 -12 17 0l168 252q12 18 12 39q0 33 -35 43 l-55 15q-33 8 -33 26q0 23 33 23h426q12 0 22.5 -7.5t10.5 -15.5q0 -16 -33 -24l-41 -11q-25 -8 -37 -22l-344 -471q-2 -6 0 -12l348 -521q55 -82 141 -94l31 -4q33 -4 33 -22q0 -25 -33 -25h-563q-33 0 -33 18q0 20 33 29l76 21q27 6 26 32q0 12 -8 25l-207 315q-8 8 -16 0 l-213 -317q-10 -14 -10 -29q0 -23 22 -28l74 -19q33 -8 33 -29q0 -18 -33 -18h-475q-33 0 -33 23z" />
<glyph unicode="Y" horiz-adv-x="1228" d="M-76 1210q0 18 33 19h557q37 0 37 -19q0 -20 -33 -24q-74 -18 -82 -23q-20 -10 -20 -33q0 -18 4 -26l244 -395q4 -6 12 -6.5t12 6.5l199 352q18 33 18 53q0 53 -82 72q-37 8 -37 24q0 18 35 19h389q37 0 37 -19q0 -14 -49 -30q-39 -12 -61 -50l-353 -563q-14 -23 -14 -43 v-377q0 -82 64 -92l84 -12q37 -4 36 -23q0 -20 -32 -20h-590q-37 0 -37 18q0 20 33 25l84 12q31 4 51 30t20 62v347q0 25 -12 43l-360 555q-55 84 -129 92l-21 2q-37 4 -37 24z" />
<glyph unicode="Z" horiz-adv-x="1085" d="M50 16q-3 7 -3 14q0 10 6 19l602 1045q8 12 3 24t-21 12h-211q-121 0 -176 -50t-98 -179q-8 -23 -33 -22q-8 0 -17.5 8t-7.5 20l23 297q0 25 22 25h830q29 0 28 -25v-35q0 -12 -14 -41l-588 -1001q-4 -8 1 -18.5t14 -10.5l268 4q78 2 127 17.5t77.5 56.5t41 75t32.5 109 q6 27 35 27q12 0 20.5 -12.5t6.5 -34.5l-49 -317q-4 -23 -29 -23h-862q-21 0 -28 16z" />
<glyph unicode="[" horiz-adv-x="548" d="M139 -199v1502q0 29 33 28h328q33 0 32 -24q0 -23 -32 -27l-86 -12q-66 -10 -66 -92v-1248q0 -82 66 -92l86 -12q33 -4 32 -27q0 -25 -32 -24h-328q-33 -1 -33 28z" />
<glyph unicode="\" horiz-adv-x="743" d="M0 1202q-10 18 8 29l64 33q18 10 28 -9l643 -1220q8 -16 -8 -25l-53 -28q-18 -12 -27 8z" />
<glyph unicode="]" horiz-adv-x="548" d="M16 -203q0 23 33 27l86 12q66 10 66 92v1248q0 82 -66 92l-86 12q-33 4 -33 27q0 25 33 24h328q33 0 33 -28v-1502q0 -29 -33 -28h-328q-33 -1 -33 24z" />
<glyph unicode="^" horiz-adv-x="823" d="M27 639l338 580q8 12 24 12h45q16 0 25 -12l338 -580q4 -8 -2.5 -15.5t-16.5 -7.5h-129q-18 0 -28 17l-209 381l-209 -381q-10 -16 -29 -17h-129q-10 0 -16 7.5t-2 15.5z" />
<glyph unicode="_" horiz-adv-x="774" d="M16 -61q0 8 9 8h725q8 0 8 -8v-111q0 -8 -8 -8h-725q-8 0 -9 8v111z" />
<glyph unicode="`" horiz-adv-x="737" d="M116 1231.5q-1 25.5 19 58.5q18 31 50 41t48 -4l383 -315q10 -6 5 -17l-13 -18q-4 -6 -16 -4l-457 223q-18 10 -19 35.5z" />
<glyph unicode="a" d="M90 201q0 63 35 120.5t106 88.5q33 14 240 75q109 33 109 105v67q0 129 -119 129q-113 0 -170.5 -51t-81.5 -168q-4 -14 -23 -14q-20 0 -20 16l-2 267q0 20 20 20q20 2 128 13.5t159 11.5q190 0 280.5 -68t90.5 -238v-428q0 -78 65 -92l62 -12q33 -8 32 -23 q0 -20 -32 -20h-303q-23 0 -35 23l-17 30q-10 16 -16 16.5t-20 -10.5q-86 -80 -215.5 -79.5t-201 56.5t-71.5 165zM340 211q0 -121 94 -121q72 0 109 57.5t37 114.5v135q0 19 -12 20q-5 0 -11 -3l-108 -54q-109 -53 -109 -149z" />
<glyph unicode="b" horiz-adv-x="1058" d="M-25 1311q0 20 33 20h400q14 0 23 -6t7 -18l-12 -136v-309q0 -20 27 -10q59 29 143 29q160 0 272.5 -114t112.5 -343q0 -205 -114.5 -324.5t-268.5 -119.5q-119 0 -214 19t-114 19q-23 0 -39 -20q-18 -23 -47 -23q-45 0 -45 43q0 14 11 29q14 25 14 49v1090q0 80 -68 90 l-84 12q-37 5 -37 23zM426 266q0 -193 143 -192q33 0 61.5 24.5t54.5 110.5t26 223q0 164 -44 248t-106 84q-90 0 -127 -98q-8 -25 -8 -50v-350z" />
<glyph unicode="c" horiz-adv-x="892" d="M78 438q0 199 120.5 321t307.5 122q57 0 151.5 -10.5t116.5 -12.5q18 0 19 -20l-2 -267q0 -25 -23 -24q-25 0 -27 18q-25 115 -74 172.5t-141 57.5q-80 0 -128 -98.5t-48 -266.5q0 -340 178 -340q131 0 222 121q8 10 24 0l47 -37q4 -4 4 -8q0 -3 -2 -6q-43 -80 -134 -130 t-202 -50q-160 0 -284.5 115.5t-124.5 342.5z" />
<glyph unicode="d" horiz-adv-x="1075" d="M78 436q0 205 112.5 325t270.5 120q102 0 153 -19q18 -6 19 15v309q0 80 -68 90l-84 12q-33 4 -32 23q0 20 32 20h393q29 0 29 -24l-8 -136v-1024q0 -37 18.5 -62.5t47.5 -29.5l63 -12q33 -8 33 -23q0 -20 -33 -20h-324q-27 0 -32 25l-11 30q-4 10 -14 11q-6 0 -16 -11 q-84 -76 -193 -75q-154 0 -255 112.5t-101 343.5zM348 436q0 -340 125 -340q102 0 150 109q10 20 10 49v342q0 193 -144 192q-16 0 -32.5 -8t-37 -31.5t-35.5 -60.5t-25.5 -102.5t-10.5 -149.5z" />
<glyph unicode="e" horiz-adv-x="940" d="M78 434q0 199 117.5 323t300.5 124q160 0 265 -95.5t105 -289.5q0 -25 -15 -43.5t-34 -18.5h-426q-16 0 -29.5 -12t-13.5 -29q4 -307 182 -307q131 0 224 125q10 12 22 2l47 -35q6 -6 2 -18q-41 -78 -136 -129t-200 -51q-162 0 -286.5 114.5t-124.5 339.5zM352 543 q0 -29 31 -29q27 -2 49 -2h53q41 0 64 8q51 18 51 62q0 213 -104 213q-61 0 -100 -66q-44 -76 -44 -186z" />
<glyph unicode="f" horiz-adv-x="776" d="M72 772v68q0 20 20 20h107v232q0 131 106.5 194.5t267.5 63.5q63 0 122 -14.5t77 -32.5q7 -6 7 -28q0 -9 -1 -20l-14 -108q-4 -23 -25 -23q-14 0 -18 13q-27 53 -70 92t-78 39q-113 0 -112 -129v-279h280q20 0 21 -14v-86q0 -16 -21 -17l-280 9v-605q0 -37 20.5 -62.5 t48.5 -29.5l64 -12q33 -8 33 -23q0 -20 -33 -20h-420q-27 0 -27 18q0 6 4.5 10.5t11.5 9.5t11 9q25 25 25 105v600h-107q-20 0 -20 20z" />
<glyph unicode="g" horiz-adv-x="1064" d="M88 -174q0 61 40 114.5t105 84.5q-41 37 -40 104q0 100 98 154q8 4 8 14t-10 14q-84 35 -131 105.5t-47 163.5q0 135 103 218t296 83q125 0 207 -31l344 10q23 0 22 -16v-60q0 -20 -22 -20l-215 -2q66 -86 65 -182q0 -139 -108.5 -224.5t-296.5 -85.5h-55 q-33 0 -64 -18.5t-31 -46.5q0 -51 58 -51q25 0 113.5 4t123.5 4q344 0 344 -277q0 -92 -50 -159.5t-131 -102.5t-163 -50t-168 -15q-106 0 -190 21.5t-144.5 84t-60.5 162.5zM289 -135q0 -68 51 -112t106.5 -57t110.5 -13q94 0 183 43t89 127q0 61 -47 79.5t-155 18.5 l-303 -10q-35 -25 -35 -76zM358 588q0 -233 164 -234q141 0 142 209q0 225 -166 225q-140 1 -140 -200z" />
<glyph unicode="h" horiz-adv-x="1128" d="M-4 1311q0 20 33 20h393q29 0 29 -24l-9 -136v-352q0 -8 6.5 -9t10.5 3q68 68 207 68q293 0 292 -326v-408q0 -74 68 -92l45 -12q31 -8 31 -23q0 -20 -33 -20h-405q-27 0 -27 18q0 6 4 10.5t11 9.5t12 9q25 25 24 105v436q0 176 -92 176q-61 0 -107.5 -46t-46.5 -116 v-455q0 -70 66 -92l37 -12q33 -12 33 -23q0 -20 -33 -20h-473q-33 0 -33 18q0 14 33 25l43 12q66 18 65 92v1039q0 80 -67 90l-84 12q-33 5 -33 23z" />
<glyph unicode="i" horiz-adv-x="671" d="M45 18q0 16 33 25l63 12q68 14 68 92v568q0 76 -68 90l-57 12q-33 8 -33 23q0 20 33 20h367q29 0 28 -24l-8 -136v-553q0 -37 19.5 -62.5t48.5 -29.5l84 -12q33 -4 32 -25q0 -18 -32 -18h-545q-33 0 -33 18zM193 1178q0 55 47 91t106 36q51 0 86 -26t35 -73 q0 -57 -47 -92t-107 -35q-51 0 -85.5 26t-34.5 73z" />
<glyph unicode="j" horiz-adv-x="641" d="M6 -406q0 35 29 48l47 18q119 47 119 164v891q0 80 -68 90l-84 12q-33 4 -33 23q0 20 33 20h393q29 0 29 -24l-8 -136v-790q0 -117 -109.5 -203t-247.5 -131q-33 -12 -63 -12q-37 -1 -37 30zM176 1178q0 55 47 91t107 36q51 0 86 -26t35 -73q0 -57 -47.5 -92t-106.5 -35 q-51 0 -86 26t-35 73z" />
<glyph unicode="k" horiz-adv-x="1114" d="M-4 1311q0 20 33 20h393q29 0 29 -24l-9 -136v-624q0 -8 7.5 -11.5t13.5 3.5l205 219q14 14 9 29.5t-22 19.5l-37 10q-31 8 -30 23q0 20 30 20h396q27 0 26 -18q0 -16 -30 -21q-37 -4 -58 -22l-276 -252l317 -443q39 -53 105 -53q16 0 45 8q14 4 18 -10l6 -18 q4 -14 -12 -23q-29 -8 -63 -8h-301q-39 0 -56 27l-223 370l-53 -49q-16 -12 -17 -33v-168q0 -78 56 -92l43 -12q33 -8 32 -23q0 -20 -32 -20h-492q-33 0 -33 18q0 16 33 25l64 12q68 14 67 92v1039q0 80 -67 90l-84 12q-33 5 -33 23z" />
<glyph unicode="l" horiz-adv-x="634" d="M20 1311q0 20 33 20h367q29 0 29 -24l-9 -136v-1024q0 -74 68 -92l45 -12q31 -8 31 -23q0 -20 -33 -20h-397q-27 0 -27 18q0 6 4 10.5t11.5 9.5t11.5 9q25 25 24 105v1034q0 76 -67 90l-58 12q-33 9 -33 23z" />
<glyph unicode="m" horiz-adv-x="1679" d="M8 840q0 20 33 20h346q20 0 33 -22l12 -23q8 -14 21 -2q80 68 221 68q172 0 256 -103q92 102 268 103q162 0 236.5 -76t74.5 -193v-465q0 -74 68 -92l45 -12q31 -8 31 -23q0 -20 -33 -20h-397q-27 0 -27 18q0 6 4 10.5t11.5 9.5t11.5 9q25 25 24 105v426q0 57 -5 89.5 t-31.5 63.5t-80.5 31q-66 0 -106.5 -41t-40.5 -107v-467q0 -74 64 -92l45 -12q27 -6 26 -23q0 -20 -28 -20h-394q-27 0 -26 18q0 6 4 10.5t11 9.5t11 9q25 25 25 105v426q0 57 -4 88.5t-31 63.5t-80 32q-66 0 -107.5 -46t-41.5 -114v-455q0 -74 63 -92l43 -12q29 -6 29 -23 q0 -20 -29 -20h-477q-33 0 -33 18q0 14 33 25l43 12q66 18 66 92v568q0 37 -20.5 61.5t-49.5 28.5l-84 12q-33 5 -33 23z" />
<glyph unicode="n" horiz-adv-x="1138" d="M8 840q0 20 33 20h360q20 0 33 -22l10 -19q8 -14 21 -2q76 63 211 64q293 0 293 -326v-408q0 -74 67 -92l47 -12q29 -8 29 -23q0 -20 -33 -20h-405q-27 0 -27 18q0 6 4 10.5t11.5 9.5t11.5 9q25 25 24 88v453q0 176 -92 176q-61 0 -107 -46t-46 -116v-455q0 -72 63 -92 l39 -12q33 -10 33 -23q0 -20 -33 -20h-473q-33 0 -33 18q0 14 33 25l43 12q66 18 65 92v568q0 80 -65 90l-84 12q-33 5 -33 23z" />
<glyph unicode="o" d="M78 432q0 186 113.5 317.5t314.5 131.5t314.5 -130t113.5 -318.5t-113.5 -320.5t-314.5 -132t-314.5 132t-113.5 320zM344 459q0 -393 168 -393q51 0 84 29.5t47 86t19.5 105.5t5.5 116q0 74 -5.5 128.5t-19.5 118t-50 98t-91 34.5q-51 0 -85 -27.5t-48.5 -78.5 t-19.5 -100t-5 -117z" />
<glyph unicode="p" horiz-adv-x="1054" d="M-2 840q0 20 33 20h323q27 0 33 -24l10 -31q4 -10 15 -10q6 0 16 10q84 76 193 76q154 0 255 -113t101 -344q0 -205 -112.5 -324.5t-270.5 -119.5q-102 0 -154 18q-18 6 -18 -14v-250q0 -76 65 -88l64 -13q33 -4 33 -22q0 -20 -33 -21h-416q-27 0 -26 19q0 6 4 10t11 9 t11 10q25 25 25 100v975q0 37 -18.5 62.5t-47.5 29.5l-63 12q-33 9 -33 23zM422 264q0 -193 143 -192q16 0 32.5 8t37 31.5t36 60.5t26 102.5t10.5 149.5q0 340 -125 340q-102 0 -150 -109q-10 -20 -10 -49v-342z" />
<glyph unicode="q" horiz-adv-x="1058" d="M78 436q0 205 114.5 325t268.5 120q119 0 214 -19.5t113 -19.5q23 0 39 20q18 23 47 23q45 0 46 -43q0 -14 -11 -29q-14 -25 -14 -49v-1028q0 -80 68 -90l84 -13q37 -4 36 -22q0 -20 -32 -21h-400q-14 0 -23.5 6.5t-6.5 18.5l12 135v248q0 20 -27 10q-59 -29 -143 -28 q-160 0 -272.5 113.5t-112.5 342.5zM348 428q0 -164 44 -248t106 -84q90 0 127 99q8 25 8 49v350q0 193 -144 192q-33 0 -61.5 -24.5t-54 -110.5t-25.5 -223z" />
<glyph unicode="r" horiz-adv-x="851" d="M8 840q0 20 33 20h319q27 0 33 -24l23 -72q2 -8 11 -10t13 6q88 121 277 121q33 0 69 -13q35 -12 33 -30l-26 -238q-4 -33 -29 -33q-8 0 -14.5 11.5t-12.5 33.5l-6 23q-31 111 -106 110q-102 0 -166 -100q-25 -39 -25 -88v-410q0 -74 68 -92l43 -12q33 -10 33 -23 q0 -20 -33 -20h-482q-33 0 -32 18q0 14 32 25l43 12q66 18 66 92v568q0 37 -19.5 61.5t-48.5 28.5l-63 12q-33 9 -33 23z" />
<glyph unicode="s" horiz-adv-x="935" d="M92 293q0 7 5 13q7 7 20 7q20 0 28 -22q41 -125 112 -171t200 -46q68 0 121 28.5t53 88t-53.5 94t-129 54t-152.5 47.5t-130 90.5t-53 162.5q0 242 333 242q49 0 132.5 -6.5t142.5 -12.5l57 -6q20 0 21 -20l4 -236q0 -25 -21 -25q-16 0 -24 19q-37 111 -102.5 154 t-180.5 43q-160 0 -160 -107q0 -47 54.5 -74.5t132.5 -47t155.5 -48.5t132 -97.5t54.5 -176.5q0 -260 -371 -260q-182 0 -334 40q-25 6 -26 27l-9 121q-2 26 -5.5 54t-5 44.5t-1.5 26.5z" />
<glyph unicode="t" horiz-adv-x="780" d="M20 768v72q0 20 21 20h143q35 0 64 47l141 238q12 23 41 22q35 0 35 -28v-279h233q20 0 21 -16v-82q0 -16 -19 -17l-235 5v-525q0 -78 23.5 -111.5t99.5 -33.5q45 0 110 35q16 8 21 -2l24 -54q2 -4 3 -7q0 -5 -7 -9q-88 -55 -243 -55q-293 0 -293 186v576h-162 q-21 0 -21 18z" />
<glyph unicode="u" horiz-adv-x="1132" d="M27 840q0 20 32 20h406q27 0 27 -18q0 -6 -4.5 -10.5t-11.5 -9.5t-11 -9q-25 -25 -25 -88v-453q0 -176 92 -176q61 0 107.5 46t46.5 116v455q0 76 -59 92l-43 12q-29 8 -29 23q0 20 29 20h342q31 0 30 -24l-8 -136v-555q0 -78 66 -90l69 -12q31 -4 31 -23q0 -20 -33 -20 h-340q-23 0 -34 23l-11 18q-8 14 -20 2q-27 -27 -86.5 -45t-126.5 -18q-293 0 -293 325v408q0 74 -68 92l-47 12q-28 9 -28 23z" />
<glyph unicode="v" horiz-adv-x="962" d="M-55 842q0 18 32 18h469q29 0 29 -18.5t-29 -24.5l-53 -14q-27 -8 -26 -39q0 -18 6 -31l157 -420q2 -8 14.5 -8t14.5 8l158 420q6 12 6 31q0 31 -27 39l-57 14q-33 8 -33 25q0 18 33 18h305q33 0 33 -18q0 -12 -27 -27q-39 -18 -53 -53l-328 -762q-10 -20 -77 -20 q-66 0 -74 20l-336 764q-14 35 -55 43l-50 10q-32 9 -32 25z" />
<glyph unicode="w" horiz-adv-x="1359" d="M-14 842q0 18 32 18h381q31 0 31 -16q0 -12 -14 -19l-41 -22q-26 -15 -26 -47q0 -11 3 -25l109 -434q2 -8 12 -8t12 8l179 526q8 20 63 21q63 0 68 -21l176 -522q4 -8 13 -8t11 8l117 430q4 17 4 30q0 32 -24 42l-52 22q-12 4 -12 19q0 16 27 16h280q31 0 31 -18 q0 -16 -27 -27q-39 -14 -53 -53l-250 -762q-6 -20 -88 -20q-88 0 -94 20l-160 479q-2 8 -10 8t-12 -8l-170 -479q-6 -20 -96 -20q-74 0 -80 20l-228 760q-10 29 -45 43l-35 14q-32 13 -32 25z" />
<glyph unicode="x" horiz-adv-x="1146" d="M14 16q0 14 27 21l27 6q59 12 133 90l258 273q4 4 0 12l-240 309q-47 59 -135 88l-18 6q-31 12 -31 25q0 14 33 14h483q27 0 27 -16q0 -12 -27 -25l-47 -20q-16 -6 -21.5 -22.5t6.5 -35.5l119 -149q4 -6 13.5 -6t13.5 4l131 149q16 20 16 33q0 37 -45 51q-29 10 -28 23 q0 14 30 14h314q31 0 30 -16q0 -14 -34 -29q-29 -10 -68 -49l-274 -289q-6 -6 0 -12l256 -332q59 -78 129 -90l24 -4q31 -4 31 -23q0 -16 -31 -16h-487q-27 0 -27 14q0 16 27 27l49 20q16 6 22.5 23.5t-6.5 34.5l-137 176q-12 14 -27 0l-161 -182q-14 -14 -15 -31 q0 -31 29 -37l37 -8q31 -8 31 -22.5t-31 -14.5h-375q-31 0 -31 16z" />
<glyph unicode="y" horiz-adv-x="972" d="M-55 842q0 18 32 18h469q29 0 29 -18.5t-29 -24.5l-53 -14q-27 -8 -26 -39q0 -18 6 -31l164 -420q4 -8 14 -8t14 8l156 420q8 16 8 31q0 31 -31 39l-57 14q-31 8 -31 25q0 18 33 18h313q31 0 31 -18q0 -20 -24 -27q-37 -14 -56 -53l-307 -719l-72 -170 q-49 -121 -127.5 -208t-164.5 -87q-37 0 -77 10.5t-42 26.5l-11 152q0 18 13 18q2 0 31.5 -3t42.5 -3q156 0 206 155l9 25q5 14 4 30q0 32 -19 74l-311 701q-14 35 -55 43l-50 10q-32 9 -32 25z" />
<glyph unicode="z" horiz-adv-x="995" d="M78 25q0 8 6 16l475 709q14 27 -10 26h-158q-100 0 -152.5 -45t-88.5 -170q-6 -25 -25 -24q-23 0 -23 22q6 117 7 154q0 25 -3.5 73t-3.5 56q0 18 21 18h747q33 0 33 -24q0 -14 -20 -45l-457 -685q-6 -8 -2 -15t14 -7l185 6q98 4 154.5 50t84.5 159q2 8 10.5 16.5 t16.5 8.5q23 0 22 -25l-20 -281q0 -18 -21 -18h-766q-26 0 -26 25z" />
<glyph unicode="{" horiz-adv-x="497" d="M37 549q0 14 8 21.5t23.5 12.5t23.5 11q68 55 60 168l-17 233q-6 106 16.5 179t100.5 122q59 37 186 37q18 0 21 -14l2 -33q0 -18 -19 -18q-45 0 -69 -19q-35 -27 -31 -123l16 -262q12 -209 -131 -315q145 -104 131 -313l-16 -263q-4 -96 31 -123q25 -18 69 -18 q18 0 19 -18l-2 -33q-2 -14 -21 -14q-127 0 -186 36q-78 49 -100.5 122t-16.5 179l17 234q8 113 -60 166q-8 6 -19.5 11t-18.5 7t-12 8.5t-5 18.5z" />
<glyph unicode="|" horiz-adv-x="495" d="M139 -244l4 826l-4 825q0 20 21 20h176q20 0 20 -20l-4 -825l4 -826q0 -20 -20 -20h-176q-21 0 -21 20z" />
<glyph unicode="}" horiz-adv-x="497" d="M37 -186q0 18 18 18q45 0 70 18q35 27 31 123l-17 263q-14 209 131 313q-143 106 -131 315l17 262q4 96 -31 123q-25 18 -70 19q-18 0 -18 18l2 33q0 14 20 14q127 0 187 -37q78 -49 100.5 -121.5t15.5 -179.5l-16 -233q-8 -113 60 -168q8 -6 23 -11t23.5 -12.5 t8.5 -21.5t-8.5 -20.5t-23.5 -11.5t-23 -13q-68 -53 -60 -166l16 -234q6 -106 -16 -178.5t-100 -122.5q-59 -37 -187 -36q-20 0 -20 14z" />
<glyph unicode="~" horiz-adv-x="950" d="M57 340q0 121 54.5 212t156.5 91q80 0 224.5 -91t193.5 -91q86 0 86 110q0 12 17.5 21.5t44.5 9.5q25 0 42 -9t17 -22q0 -121 -55.5 -211t-159.5 -90q-80 0 -224.5 90.5t-189.5 90.5q-92 0 -92 -111q0 -12 -17.5 -21.5t-40 -9.5t-40 9.5t-17.5 21.5z" />
<glyph unicode="&#xa1;" horiz-adv-x="530" d="M115 -272l96 827q4 23 20 23h66q20 0 20 -23l97 -827q6 -47 -32 -84t-118 -37q-78 0 -116.5 37t-32.5 84zM137 815q0 53 43 90t99 37q45 0 76.5 -26.5t31.5 -69.5q0 -55 -43 -93t-94 -38q-47 0 -80 27.5t-33 72.5z" />
<glyph unicode="&#xa2;" horiz-adv-x="897" d="M92 438q0 190 111.5 316.5t271.5 126.5h6l8 190q0 20 17 21l102 -7q18 0 15 -22l-17 -186q20 -2 58 -6.5t69 -7.5t55 -5q18 0 19 -20l-2 -267q0 -25 -22.5 -24.5t-26.5 18.5q-25 115 -74 174.5t-141 59.5q-80 0 -128 -100.5t-48 -268.5q0 -344 178 -344q127 0 221 127 q10 10 16 6l56 -45q4 -6 2 -14q-39 -70 -119 -118t-176 -58l-13 -230q0 -20 -16 -20l-104 6q-16 0 -13 22l21 226q-137 27 -231.5 141t-94.5 309z" />
<glyph unicode="&#xa3;" horiz-adv-x="987" d="M47 561v45q0 20 21 21h92l-29 121q-16 74 -16 122q0 150 115.5 224.5t281.5 74.5q18 0 334 -22q20 0 20 -21l-2 -286q0 -25 -22 -25q-18 0 -23 19q-25 109 -101.5 179t-185.5 70q-76 0 -114.5 -53t-38.5 -145q0 -51 18 -140l29 -118h264q20 0 21 -21v-45q0 -20 -21 -20 h-244l21 -82q20 -90 20 -150q0 -113 -69 -215h190q104 0 169 46t93 157q4 25 29 25q20 0 21 -23l-21 -281q0 -18 -18 -18h-785q-20 0 -20 20v54q0 20 20 20h76q68 76 68 174q0 61 -19 127l-39 146h-114q-21 0 -21 20z" />
<glyph unicode="&#xa4;" horiz-adv-x="1191" d="M16 430l17 49q6 20 26 21l111 -2q-4 27 -4 82q0 39 2 57l-139 -2q-6 0 -10.5 6t-2.5 14l17 52q6 20 26 20l119 -2q35 211 172 332t342 121q80 0 199 -12.5t149 -14.5q25 -4 25 -27v-315q0 -12 -8 -20.5t-17 -8.5q-20 0 -26 23q-37 150 -107.5 217t-212.5 67 q-203 0 -233 -366l413 6q18 0 13 -20l-15 -52q-4 -20 -28 -20l-387 4v-86v-57l360 4q20 0 14 -21l-16 -49q-8 -20 -29 -20l-321 2q47 -342 268 -342q121 0 192.5 68.5t106.5 207.5q4 16 27 16q27 0 24 -22l-16 -301q-2 -20 -29 -25q-20 -2 -80.5 -12t-122 -16t-122.5 -6 q-213 0 -353.5 108.5t-179.5 321.5h-151q-6 0 -10.5 6t-2.5 14z" />
<glyph unicode="&#xa5;" horiz-adv-x="1183" d="M-59 1126q0 18 30 19h518q31 0 31 -21q0 -12 -31 -20q-55 -8 -75 -19q-18 -8 -19 -32q0 -12 6 -25l215 -352q2 -6 10.5 -6t12.5 6l176 311q16 29 16 49q0 45 -75 68q-31 8 -31 22q0 18 29 19h383q31 0 30 -19q0 -14 -43 -28q-33 -8 -57 -45l-330 -525q-8 -12 -12 -28 l268 4q20 0 21 -21v-51q0 -20 -21 -20l-268 2v-138l268 5q20 0 21 -21v-49q0 -8 -6.5 -15.5t-14.5 -7.5l-268 5v-56q0 -35 18.5 -58.5t44.5 -27.5l78 -10q31 -4 31 -22.5t-31 -18.5h-549q-31 0 -30 16q0 20 30 25l78 10q27 4 45.5 27.5t18.5 58.5v56l-258 -5q-20 0 -21 21 v51q0 20 21 21l258 -5v138l-258 -2q-20 0 -21 20v49q0 23 21 23l248 -4l-338 516q-51 78 -121 86l-19 2q-10 2 -20 9t-10 13z" />
<glyph unicode="&#xa6;" horiz-adv-x="495" d="M139 -244l4 375l-4 375q0 20 21 20h176q20 0 20 -20l-4 -375l4 -375q0 -20 -20 -20h-176q-21 0 -21 20zM139 657l4 375l-4 375q0 20 21 20h176q20 0 20 -20l-4 -375l4 -375q0 -20 -20 -20h-176q-21 0 -21 20z" />
<glyph unicode="&#xa7;" horiz-adv-x="1021" d="M78 563q0 139 127 219q-66 88 -66 191q0 127 88 201.5t248 74.5q49 0 129 -6t135 -12l56 -6q20 0 20 -21l6 -248q0 -25 -18 -24q-14 0 -23 18q-33 98 -111.5 156.5t-189.5 58.5q-51 0 -97 -33.5t-46 -97.5q0 -66 45 -109.5t112.5 -67t146.5 -55.5t146.5 -67t112.5 -108.5 t45 -177.5q0 -68 -37 -128.5t-84 -89.5q63 -92 64 -192q0 -152 -107.5 -225.5t-294.5 -73.5q-150 0 -313 41q-23 6 -22 26l-9 121q-8 100 -12 129q-4 27 27 27q18 0 26 -25q41 -125 117 -179t199 -54q70 0 129 40t59 124q0 66 -45 111.5t-112.5 69.5t-146.5 55.5 t-146.5 65.5t-112.5 103.5t-45 167.5zM274 625q0 -86 69 -132.5t197 -88.5t189 -80q18 37 19 71q0 86 -68 134.5t-196 93.5t-185 79q-25 -34 -25 -77z" />
<glyph unicode="&#xa8;" horiz-adv-x="737" d="M113 1085q0 39 31.5 68t70.5 29q33 0 55.5 -20.5t22.5 -53.5q0 -39 -31 -68.5t-72 -29.5q-33 0 -55 21t-22 54zM444 1085q0 39 32 68t71 29q33 0 55.5 -20.5t22.5 -53.5q0 -39 -31 -68.5t-72 -29.5q-33 0 -55.5 21t-22.5 54z" />
<glyph unicode="&#xa9;" horiz-adv-x="1511" d="M109 614.5q0 264.5 189 450.5t458 186q270 0 458.5 -186t188.5 -450.5t-188.5 -451t-458.5 -186.5q-268 0 -457.5 186.5t-189.5 451zM207 614.5q0 -229.5 160.5 -391.5t388 -162t388.5 162t161 391.5t-161 391t-388.5 161.5t-388 -161.5t-160.5 -391zM391 614 q0 186 108.5 298t278.5 112q18 0 240 -18q8 0 15 -8.5t7 -14.5v-219q0 -8 -8 -15.5t-18 -7.5q-23 0 -27 17q-25 104 -69 149t-138 45q-160 0 -159 -354q0 -74 12 -139.5t57 -122.5t117 -57q80 0 125 45t67 139q4 16 27 16q27 0 27 -22l-13 -207q0 -20 -22 -21q-14 -2 -56 -9 t-85 -12t-84 -5q-180 0 -291 104t-111 307z" />
<glyph unicode="&#xaa;" horiz-adv-x="821" d="M84 705q0 121 113 167q27 12 56.5 21.5t69 21t66.5 19.5q86 27 86 82v57q0 104 -94 105q-92 0 -136 -40t-65 -132q0 -12 -16 -13q-18 0 -19 15l-2 204q0 16 17 17q23 2 105.5 11t123.5 9q150 0 224.5 -54t74.5 -189v-342q0 -66 51 -74l49 -10q27 -8 27 -19q0 -16 -27 -16 h-243q-18 0 -29 18l-12 25q-6 12 -14.5 12t-16.5 -8q-68 -63 -172 -64q-102 0 -159.5 45.5t-57.5 131.5zM287 713q0 -102 73 -103q57 0 86 46t29 92v114q0 23 -18 12l-84 -43q-86 -42 -86 -118z" />
<glyph unicode="&#xab;" horiz-adv-x="849" d="M68 450.5q0 14.5 10 24.5l280 260q33 29 56 8q20 -18 -4 -55l-148 -237l148 -238q25 -37 4 -55q-23 -20 -56 8l-280 260q-10 10 -10 24.5zM416 450.5q0 14.5 10 24.5l281 260q33 29 55 8q20 -18 -4 -55l-148 -237l148 -238q25 -37 4 -55q-23 -20 -55 8l-281 260 q-10 10 -10 24.5z" />
<glyph unicode="&#xac;" horiz-adv-x="0" />
<glyph unicode="&#xad;" horiz-adv-x="536" d="M57 397v123q0 20 21 21l190 -4l191 4q20 0 20 -21v-123q0 -20 -20 -20l-191 4l-190 -4q-21 0 -21 20z" />
<glyph unicode="&#xae;" horiz-adv-x="1296" d="M94 798.5q0 227.5 163 388.5t392.5 161t391 -161t161.5 -388.5t-161.5 -388t-391 -160.5t-392.5 160.5t-163 388zM176 798.5q0 -196.5 139.5 -336.5t334 -140t332.5 140t138 336.5t-138 337t-332.5 140.5t-334 -140.5t-139.5 -337zM317 1096q0 18 27 18h356 q80 0 130.5 -43t50.5 -108q0 -63 -40 -111.5t-96 -60.5q-16 -2 -6 -13q12 -12 29 -37l125 -184q18 -25 49 -25q18 0 29 5q8 2 14 -5.5t6 -15.5q0 -10 -12 -18q-20 -10 -61 -11h-148q-14 0 -22 17l-127 241q-12 27 -29 27h-17q-8 0 -8 -10v-189q0 -35 31 -43l23 -6 q20 -4 20 -20.5t-23 -16.5h-231q-23 0 -22 21q0 14 20 18q27 6 27 37l2 242l-2 229q0 35 -27 39l-45 6q-6 0 -14.5 6.5t-8.5 10.5zM567 844q0 -16 13 -17q70 0 104.5 30t34.5 99q0 45 -27.5 73t-73.5 28h-30q-20 0 -21 -17v-196z" />
<glyph unicode="&#xaf;" horiz-adv-x="737" d="M66 1081v82q0 20 20 21l283 -4l282 4q20 0 21 -21v-82q0 -20 -21 -20l-282 4l-283 -4q-20 0 -20 20z" />
<glyph unicode="&#xb0;" horiz-adv-x="618" d="M72 1001.5q0 98.5 69.5 168t168 69.5t168 -69.5t69.5 -168t-69.5 -167t-168 -68.5t-168 68.5t-69.5 167zM180 1001.5q0 -57.5 38 -98.5t91 -41t91 41t38 98.5t-38 98.5t-91 41t-91 -41t-38 -98.5z" />
<glyph unicode="&#xb1;" horiz-adv-x="0" />
<glyph unicode="&#xb2;" horiz-adv-x="0" />
<glyph unicode="&#xb3;" horiz-adv-x="0" />
<glyph unicode="&#xb4;" horiz-adv-x="737" d="M117 995q-6 10 4 17l383 315q16 14 48 4t50 -41q20 -33 19.5 -58.5t-19.5 -35.5l-457 -223q-12 -2 -16 4z" />
<glyph unicode="&#xb5;" horiz-adv-x="1142" d="M-14 -346q0 27 34 41l41 16q55 20 87 66.5t32 101.5v834q0 74 -67 92l-47 12q-29 8 -29 23q0 20 33 20h405q27 0 27 -18q0 -6 -4 -10.5t-11.5 -9.5t-11.5 -9q-25 -25 -24 -88v-453q0 -92 20.5 -134t67.5 -42q61 0 109 46t48 116v455q0 76 -61 92l-43 12q-29 8 -29 23 q0 20 29 20h344q31 0 31 -24l-9 -136v-555q0 -78 66 -90l70 -12q31 -4 30 -23q0 -20 -32 -20h-355q-23 0 -35 23l-10 18q-8 14 -20 2q-63 -63 -199 -63q-33 0 -63 6v-19q0 -119 -97.5 -204t-228.5 -128q-27 -10 -59 -10q-39 0 -39 29z" />
<glyph unicode="&#xb6;" horiz-adv-x="1126" d="M88 901q0 135 96.5 231.5t233.5 96.5h647q35 0 35 -33q0 -27 -33 -31l-82 -12q-31 -4 -50.5 -29.5t-19.5 -62.5l-2 -426l2 -748q0 -78 64 -92q35 -6 35 -33q0 -29 -35 -28h-207q-14 0 -25.5 12t-11.5 27v1310q0 20 -20 21h-56q-20 0 -20 -21v-1310q0 -16 -10.5 -27.5 t-24.5 -11.5h-278q-33 0 -33 28q0 25 33 33l63 12q68 14 68 93v671q-164 2 -266.5 96.5t-102.5 233.5z" />
<glyph unicode="&#xb7;" horiz-adv-x="440" d="M88 553q0 55 47 94t103 39q45 0 79.5 -27.5t34.5 -72.5q0 -53 -47 -92t-102 -39q-47 0 -81 26.5t-34 71.5z" />
<glyph unicode="&#xb8;" horiz-adv-x="737" d="M223 -397l13 28q6 12 18 7q33 -16 72 -17q12 0 24 12.5t12 36.5q0 39 -54 103.5t-54 126.5q0 35 18 55q14 18 43 18q25 0 25 -12q0 -6 -2 -8q-18 -18 -19 -35q0 -25 49.5 -63.5t97.5 -86t48 -96.5q0 -51 -47 -80.5t-123 -29.5q-66 0 -115 26q-10 7 -6 15z" />
<glyph unicode="&#xb9;" horiz-adv-x="0" />
<glyph unicode="&#xba;" horiz-adv-x="843" d="M78 890.5q0 149.5 92 254t252 104.5q162 0 253 -104.5t91 -254t-91 -256t-253 -106.5q-160 0 -252 106.5t-92 256zM295 911q0 -313 133 -313q41 0 66.5 23.5t37 68.5t14.5 83t3 95q0 61 -3 102.5t-14.5 93.5t-40 79.5t-71.5 27.5q-41 0 -67.5 -21.5t-38 -63.5t-15.5 -81 t-4 -94z" />
<glyph unicode="&#xbb;" horiz-adv-x="849" d="M88 158q-20 18 4 55l148 238l-148 237q-25 37 -4 55q23 20 55 -8l281 -260q10 -10 10 -24.5t-10 -24.5l-281 -260q-32 -28 -55 -8zM436 158q-20 18 4 55l148 238l-148 237q-25 37 -4 55q23 20 56 -8l280 -260q10 -10 10 -24.5t-10 -24.5l-280 -260q-33 -28 -56 -8z" />
<glyph unicode="&#xbc;" horiz-adv-x="0" />
<glyph unicode="&#xbd;" horiz-adv-x="0" />
<glyph unicode="&#xbe;" horiz-adv-x="0" />
<glyph unicode="&#xbf;" horiz-adv-x="737" d="M68 -100q0 72 41 142.5t90 116.5t125.5 113.5t113.5 106.5q61 68 62 115q0 33 -31 94q-6 12 2 26.5t25 20.5q41 14 73 -45q41 -68 41 -135q0 -102 -55 -179l-129 -180q-80 -109 -80 -207q0 -84 43 -119.5t105 -35.5q86 0 135 26q35 20 51 -18q14 -29 -8 -41 q-98 -59 -260 -59t-253 67.5t-91 190.5zM354 815q0 53 43 90t99 37q47 0 77.5 -26.5t30.5 -69.5q0 -55 -43 -93t-94 -38q-47 0 -80 27.5t-33 72.5z" />
<glyph unicode="&#xc0;" horiz-adv-x="1247" d="M-45 18q0 16 33 25l43 12q43 12 55 43l434 1131q8 20 98.5 20t100.5 -20l457 -1133q14 -35 55 -43l55 -10q33 -4 33 -25q0 -18 -33 -18h-538q-33 0 -33 18q0 16 33 25l63 12q33 6 44 28.5t1 43.5l-74 203q-6 16 -24 16h-373q-18 0 -25 -16l-79 -232q-2 -6 -4.5 -14 t-4.5 -13t-2 -8q0 -18 15 -26q16 -10 16 -19q0 -18 -35 -18h-278q-33 0 -33 18zM408 463q-2 -5 -3 -10q0 -11 17 -11h299q15 0 15 11q0 4 -3 10l-145 395q-6 16 -22.5 16t-22.5 -16zM290 1561.5q-1 25.5 19 58.5q18 31 50 41t48 -4l383 -315q10 -6 5 -17l-13 -18 q-4 -6 -16 -4l-457 223q-18 10 -19 35.5z" />
<glyph unicode="&#xc1;" horiz-adv-x="1247" d="M-45 18q0 16 33 25l43 12q43 12 55 43l434 1131q8 20 98.5 20t100.5 -20l457 -1133q14 -35 55 -43l55 -10q33 -4 33 -25q0 -18 -33 -18h-538q-33 0 -33 18q0 16 33 25l63 12q33 6 44 28.5t1 43.5l-74 203q-6 16 -24 16h-373q-18 0 -25 -16l-79 -232q-2 -6 -4.5 -14 t-4.5 -13t-2 -8q0 -18 15 -26q16 -10 16 -19q0 -18 -35 -18h-278q-33 0 -33 18zM408 463q-2 -5 -3 -10q0 -11 17 -11h299q15 0 15 11q0 4 -3 10l-145 395q-6 16 -22.5 16t-22.5 -16zM445 1325q-6 10 4 17l383 315q16 14 48 4t50 -41q20 -33 19.5 -58.5t-19.5 -35.5 l-457 -223q-12 -2 -16 4z" />
<glyph unicode="&#xc2;" horiz-adv-x="1247" d="M-45 18q0 16 33 25l43 12q43 12 55 43l434 1131q8 20 98.5 20t100.5 -20l457 -1133q14 -35 55 -43l55 -10q33 -4 33 -25q0 -18 -33 -18h-538q-33 0 -33 18q0 16 33 25l63 12q33 6 44 28.5t1 43.5l-74 203q-6 16 -24 16h-373q-18 0 -25 -16l-79 -232q-2 -6 -4.5 -14 t-4.5 -13t-2 -8q0 -18 15 -26q16 -10 16 -19q0 -18 -35 -18h-278q-33 0 -33 18zM408 463q-2 -5 -3 -10q0 -11 17 -11h299q15 0 15 11q0 4 -3 10l-145 395q-6 16 -22.5 16t-22.5 -16zM352 1315q-20 23 9 51l155 164l78 90q12 12 22.5 12.5t22.5 -12.5l78 -90l156 -164 q29 -29 8 -51q-16 -20 -51 2l-213 158l-213 -158q-36 -22 -52 -2z" />
<glyph unicode="&#xc3;" horiz-adv-x="1247" d="M-45 18q0 16 33 25l43 12q43 12 55 43l434 1131q8 20 98.5 20t100.5 -20l457 -1133q14 -35 55 -43l55 -10q33 -4 33 -25q0 -18 -33 -18h-538q-33 0 -33 18q0 16 33 25l63 12q33 6 44 28.5t1 43.5l-74 203q-6 16 -24 16h-373q-18 0 -25 -16l-79 -232q-2 -6 -4.5 -14 t-4.5 -13t-2 -8q0 -18 15 -26q16 -10 16 -19q0 -18 -35 -18h-278q-33 0 -33 18zM408 463q-2 -5 -3 -10q0 -11 17 -11h299q15 0 15 11q0 4 -3 10l-145 395q-6 16 -22.5 16t-22.5 -16zM311 1372q0 90 40 158t118 68q59 0 166.5 -61.5t144.5 -61.5q63 0 64 82q0 23 45 22.5 t45 -22.5q0 -90 -41 -157.5t-119 -67.5q-61 0 -168.5 61t-140.5 61q-68 0 -68 -82q0 -23 -43 -23t-43 23z" />
<glyph unicode="&#xc4;" horiz-adv-x="1247" d="M-45 18q0 16 33 25l43 12q43 12 55 43l434 1131q8 20 98.5 20t100.5 -20l457 -1133q14 -35 55 -43l55 -10q33 -4 33 -25q0 -18 -33 -18h-538q-33 0 -33 18q0 16 33 25l63 12q33 6 44 28.5t1 43.5l-74 203q-6 16 -24 16h-373q-18 0 -25 -16l-79 -232q-2 -6 -4.5 -14 t-4.5 -13t-2 -8q0 -18 15 -26q16 -10 16 -19q0 -18 -35 -18h-278q-33 0 -33 18zM408 463q-2 -5 -3 -10q0 -11 17 -11h299q15 0 15 11q0 4 -3 10l-145 395q-6 16 -22.5 16t-22.5 -16zM363 1413q0 39 31.5 68t70.5 29q33 0 55.5 -20.5t22.5 -53.5q0 -39 -31 -68.5t-72 -29.5 q-33 0 -55 21t-22 54zM694 1413q0 39 32 68t71 29q33 0 55.5 -20.5t22.5 -53.5q0 -39 -31 -68.5t-72 -29.5q-33 0 -55.5 21t-22.5 54z" />
<glyph unicode="&#xc5;" horiz-adv-x="1247" d="M-45 18q0 16 33 25l43 12q43 12 55 43l434 1131q8 20 98.5 20t100.5 -20l457 -1133q14 -35 55 -43l55 -10q33 -4 33 -25q0 -18 -33 -18h-538q-33 0 -33 18q0 16 33 25l63 12q33 6 44 28.5t1 43.5l-74 203q-6 16 -24 16h-373q-18 0 -25 -16l-79 -232q-2 -6 -4.5 -14 t-4.5 -13t-2 -8q0 -18 15 -26q16 -10 16 -19q0 -18 -35 -18h-278q-33 0 -33 18zM408 463q-2 -5 -3 -10q0 -11 17 -11h299q15 0 15 11q0 4 -3 10l-145 395q-6 16 -22.5 16t-22.5 -16zM424 1460q0 72 56.5 120t138.5 48t138 -48t56 -120t-56 -121t-138 -49t-138.5 49 t-56.5 121zM520 1460q0 -37 29 -59.5t70 -22.5t69.5 22.5t28.5 59.5t-28.5 58.5t-69.5 21.5t-70 -21.5t-29 -58.5z" />
<glyph unicode="&#xc6;" horiz-adv-x="1859" d="M-55 18q0 16 32 25l43 12q41 10 64 43l747 1108q16 23 52 23h809q20 0 24 -25l23 -297q2 -12 -5.5 -20t-15.5 -8q-20 0 -28 22q-53 135 -111.5 182t-167.5 47h-172q-20 0 -36.5 -14t-16.5 -33v-358q0 -14 14 -14l326 10q20 0 20 -21v-118q0 -20 -20 -21l-326 10 q-14 0 -14 -16v-420q0 -14 13 -25.5t30 -11.5l223 4q76 2 125 18.5t79 55.5t44 76t35 108q6 27 32 27q33 0 25 -47l-49 -317q-4 -23 -29 -23h-878q-31 0 -31 18.5t33 24.5q63 14 63 92v199q0 16 -20 16h-373q-16 0 -27 -16l-157 -236q-16 -29 -17 -35q0 -18 15 -26 q16 -10 16 -19q0 -18 -35 -18h-326q-32 0 -32 18zM569 449.5q4 -7.5 15 -7.5h297q6 0 13 6.5t7 12.5v446q0 20 -21.5 22.5t-31.5 -14.5l-279 -452q-4 -6 0 -13.5z" />
<glyph unicode="&#xc7;" horiz-adv-x="1185" d="M109 616q0 287 151.5 460t401.5 173q88 0 224 -14t146 -14q8 0 16.5 -9.5t8.5 -17.5v-334q0 -12 -8.5 -20.5t-16.5 -8.5q-23 0 -28 23q-39 158 -114 229.5t-224 71.5q-252 0 -252 -567q0 -82 12 -162t42 -165t90 -136t147 -51q129 0 204.5 72.5t112.5 218.5q2 18 29 18 q29 0 26 -25l-18 -315q0 -23 -31 -27q-23 -2 -86 -12t-128.5 -17t-129.5 -7q-266 0 -420.5 161.5t-154.5 474.5zM520 -397l13 28q6 12 18 7q33 -16 72 -17q12 0 24 12.5t12 36.5q0 39 -54 103.5t-54 126.5q0 35 18 55q14 18 43 18q25 0 25 -12q0 -6 -2 -8q-18 -18 -19 -35 q0 -25 49.5 -63.5t97.5 -86t48 -96.5q0 -51 -47 -80.5t-123 -29.5q-66 0 -115 26q-10 7 -6 15z" />
<glyph unicode="&#xc8;" horiz-adv-x="1189" d="M29 1208q0 20 32 21h965q18 0 23 -25l22 -297q2 -12 -5 -20t-15 -8q-20 0 -29 22q-53 135 -111.5 182t-167.5 47h-192q-20 0 -35.5 -14t-15.5 -33l-2 -358q0 -14 14 -14l346 10q20 0 21 -21v-118q0 -20 -21 -21l-348 10q-12 0 -12 -16l2 -420q0 -14 11 -25.5t28 -11.5 l243 4q76 2 126 17.5t80 56.5t43 76t34 108q6 27 33 27q12 0 20 -12q5 -8 6 -21q0 -6 -2 -14l-49 -317q-4 -23 -29 -23h-894q-33 0 -33 18q0 16 33 25q63 14 63 92l2 481l-2 465q0 37 -19.5 62.5t-48.5 30.5l-84 12q-32 4 -32 22zM261 1561.5q-1 25.5 19 58.5q18 31 50 41 t48 -4l383 -315q10 -6 5 -17l-13 -18q-4 -6 -16 -4l-457 223q-18 10 -19 35.5z" />
<glyph unicode="&#xc9;" horiz-adv-x="1189" d="M29 1208q0 20 32 21h965q18 0 23 -25l22 -297q2 -12 -5 -20t-15 -8q-20 0 -29 22q-53 135 -111.5 182t-167.5 47h-192q-20 0 -35.5 -14t-15.5 -33l-2 -358q0 -14 14 -14l346 10q20 0 21 -21v-118q0 -20 -21 -21l-348 10q-12 0 -12 -16l2 -420q0 -14 11 -25.5t28 -11.5 l243 4q76 2 126 17.5t80 56.5t43 76t34 108q6 27 33 27q12 0 20 -12q5 -8 6 -21q0 -6 -2 -14l-49 -317q-4 -23 -29 -23h-894q-33 0 -33 18q0 16 33 25q63 14 63 92l2 481l-2 465q0 37 -19.5 62.5t-48.5 30.5l-84 12q-32 4 -32 22zM418 1325q-6 10 4 17l383 315q16 14 48 4 t50 -41q20 -33 19.5 -58.5t-19.5 -35.5l-457 -223q-12 -2 -16 4z" />
<glyph unicode="&#xca;" horiz-adv-x="1189" d="M29 1208q0 20 32 21h965q18 0 23 -25l22 -297q2 -12 -5 -20t-15 -8q-20 0 -29 22q-53 135 -111.5 182t-167.5 47h-192q-20 0 -35.5 -14t-15.5 -33l-2 -358q0 -14 14 -14l346 10q20 0 21 -21v-118q0 -20 -21 -21l-348 10q-12 0 -12 -16l2 -420q0 -14 11 -25.5t28 -11.5 l243 4q76 2 126 17.5t80 56.5t43 76t34 108q6 27 33 27q12 0 20 -12q5 -8 6 -21q0 -6 -2 -14l-49 -317q-4 -23 -29 -23h-894q-33 0 -33 18q0 16 33 25q63 14 63 92l2 481l-2 465q0 37 -19.5 62.5t-48.5 30.5l-84 12q-32 4 -32 22zM340 1315q-20 23 9 51l155 164l78 90 q12 12 22.5 12.5t22.5 -12.5l78 -90l156 -164q29 -29 8 -51q-16 -20 -51 2l-213 158l-213 -158q-36 -22 -52 -2z" />
<glyph unicode="&#xcb;" horiz-adv-x="1189" d="M29 1208q0 20 32 21h965q18 0 23 -25l22 -297q2 -12 -5 -20t-15 -8q-20 0 -29 22q-53 135 -111.5 182t-167.5 47h-192q-20 0 -35.5 -14t-15.5 -33l-2 -358q0 -14 14 -14l346 10q20 0 21 -21v-118q0 -20 -21 -21l-348 10q-12 0 -12 -16l2 -420q0 -14 11 -25.5t28 -11.5 l243 4q76 2 126 17.5t80 56.5t43 76t34 108q6 27 33 27q12 0 20 -12q5 -8 6 -21q0 -6 -2 -14l-49 -317q-4 -23 -29 -23h-894q-33 0 -33 18q0 16 33 25q63 14 63 92l2 481l-2 465q0 37 -19.5 62.5t-48.5 30.5l-84 12q-32 4 -32 22zM359 1413q0 39 31.5 68t70.5 29 q33 0 55.5 -20.5t22.5 -53.5q0 -39 -31 -68.5t-72 -29.5q-33 0 -55 21t-22 54zM690 1413q0 39 32 68t71 29q33 0 55.5 -20.5t22.5 -53.5q0 -39 -31 -68.5t-72 -29.5q-33 0 -55.5 21t-22.5 54z" />
<glyph unicode="&#xcc;" horiz-adv-x="778" d="M59 18q0 20 33 25l84 12q68 10 68 92l6 469l-6 465q0 82 -64 93l-84 12q-37 4 -37 22q0 20 33 21h590q37 0 37 -19q0 -20 -33 -24l-84 -12q-68 -10 -67 -93l-7 -465l7 -469q0 -82 63 -92l84 -12q37 -4 37 -23q0 -20 -33 -20h-590q-37 0 -37 18zM59 1561.5 q-1 25.5 19 58.5q18 31 50 41t48 -4l383 -315q10 -6 5 -17l-13 -18q-4 -6 -16 -4l-457 223q-18 10 -19 35.5z" />
<glyph unicode="&#xcd;" horiz-adv-x="778" d="M59 18q0 20 33 25l84 12q68 10 68 92l6 469l-6 465q0 82 -64 93l-84 12q-37 4 -37 22q0 20 33 21h590q37 0 37 -19q0 -20 -33 -24l-84 -12q-68 -10 -67 -93l-7 -465l7 -469q0 -82 63 -92l84 -12q37 -4 37 -23q0 -20 -33 -20h-590q-37 0 -37 18zM230 1325q-6 10 4 17 l383 315q16 14 48 4t50 -41q20 -33 19.5 -58.5t-19.5 -35.5l-457 -223q-12 -2 -16 4z" />
<glyph unicode="&#xce;" horiz-adv-x="778" d="M59 18q0 20 33 25l84 12q68 10 68 92l6 469l-6 465q0 82 -64 93l-84 12q-37 4 -37 22q0 20 33 21h590q37 0 37 -19q0 -20 -33 -24l-84 -12q-68 -10 -67 -93l-7 -465l7 -469q0 -82 63 -92l84 -12q37 -4 37 -23q0 -20 -33 -20h-590q-37 0 -37 18zM120 1315q-20 23 9 51 l155 164l78 90q12 12 22.5 12.5t22.5 -12.5l78 -90l156 -164q29 -29 8 -51q-16 -20 -51 2l-213 158l-213 -158q-36 -22 -52 -2z" />
<glyph unicode="&#xcf;" horiz-adv-x="778" d="M59 18q0 20 33 25l84 12q68 10 68 92l6 469l-6 465q0 82 -64 93l-84 12q-37 4 -37 22q0 20 33 21h590q37 0 37 -19q0 -20 -33 -24l-84 -12q-68 -10 -67 -93l-7 -465l7 -469q0 -82 63 -92l84 -12q37 -4 37 -23q0 -20 -33 -20h-590q-37 0 -37 18zM131 1413q0 39 31.5 68 t70.5 29q33 0 55.5 -20.5t22.5 -53.5q0 -39 -31 -68.5t-72 -29.5q-33 0 -55 21t-22 54zM462 1413q0 39 32 68t71 29q33 0 55.5 -20.5t22.5 -53.5q0 -39 -31 -68.5t-72 -29.5q-33 0 -55.5 21t-22.5 54z" />
<glyph unicode="&#xd0;" horiz-adv-x="1343" d="M43 1208q0 20 33 21h651q213 0 360.5 -152.5t147.5 -433.5q0 -272 -145.5 -457.5t-409.5 -185.5h-584q-33 0 -33 18q0 16 33 25l64 12q29 4 48 30t19 62l2 439l-143 -2v61l143 -2l-2 438q0 37 -19.5 62.5t-47.5 30.5l-84 12q-33 4 -33 22zM512 588l2 -404q0 -96 74 -96 q90 0 155.5 36t100.5 88t54.5 135t24.5 149.5t5 156.5q0 260 -93.5 373t-242.5 113h-21q-20 0 -38.5 -14.5t-18.5 -32.5l-2 -451l188 4v-61z" />
<glyph unicode="&#xd1;" horiz-adv-x="1390" d="M33 18q0 16 33 25l63 12q29 4 47.5 30t20.5 62l18 754v166q0 86 -47 98l-74 19q-37 8 -37 26.5t33 18.5h320q29 0 39 -17l540 -778q10 -14 23.5 -10t13.5 18l2 170l-6 469q0 37 -19.5 62.5t-48.5 30.5l-73 12q-33 8 -33 24q0 18 33 19h442q33 0 33 -19q0 -16 -33 -24 l-63 -12q-29 -4 -48.5 -30t-19.5 -61l-6 -471l4 -583q0 -37 -41 -37h-137q-27 0 -41 22l-584 858q-6 8 -15.5 6.5t-9.5 -12.5l19 -698q2 -88 22 -119q4 -8 16.5 -16t12.5 -15q0 -18 -26 -18h-340q-33 0 -33 18zM389 1374q0 90 40 158t118 68q59 0 166.5 -61.5t144.5 -61.5 q63 0 64 82q0 23 45 22.5t45 -22.5q0 -90 -41 -157.5t-119 -67.5q-61 0 -168.5 61t-140.5 61q-68 0 -68 -82q0 -23 -43 -23t-43 23z" />
<glyph unicode="&#xd2;" horiz-adv-x="1333" d="M109 608q0 274 144 457.5t417 183.5q279 0 417 -174t138 -454q0 -274 -142.5 -457.5t-414.5 -183.5q-279 0 -419 174.5t-140 453.5zM422 641q0 -86 3 -148.5t17.5 -148.5t40 -140t74.5 -93t119 -39q53 0 94 20.5t65.5 61.5t42 87t24.5 109.5t10 116.5t3 121q0 70 -2 122 t-10 124.5t-25.5 124t-44 100.5t-71.5 73.5t-105 24.5q-76 0 -126 -45t-72.5 -128t-29.5 -160t-7 -183zM339 1561.5q-1 25.5 19 58.5q18 31 50 41t48 -4l383 -315q10 -6 5 -17l-13 -18q-4 -6 -16 -4l-457 223q-18 10 -19 35.5z" />
<glyph unicode="&#xd3;" horiz-adv-x="1333" d="M109 608q0 274 144 457.5t417 183.5q279 0 417 -174t138 -454q0 -274 -142.5 -457.5t-414.5 -183.5q-279 0 -419 174.5t-140 453.5zM422 641q0 -86 3 -148.5t17.5 -148.5t40 -140t74.5 -93t119 -39q53 0 94 20.5t65.5 61.5t42 87t24.5 109.5t10 116.5t3 121q0 70 -2 122 t-10 124.5t-25.5 124t-44 100.5t-71.5 73.5t-105 24.5q-76 0 -126 -45t-72.5 -128t-29.5 -160t-7 -183zM479 1325q-6 10 4 17l383 315q16 14 48 4t50 -41q20 -33 19.5 -58.5t-19.5 -35.5l-457 -223q-12 -2 -16 4z" />
<glyph unicode="&#xd4;" horiz-adv-x="1333" d="M109 608q0 274 144 457.5t417 183.5q279 0 417 -174t138 -454q0 -274 -142.5 -457.5t-414.5 -183.5q-279 0 -419 174.5t-140 453.5zM422 641q0 -86 3 -148.5t17.5 -148.5t40 -140t74.5 -93t119 -39q53 0 94 20.5t65.5 61.5t42 87t24.5 109.5t10 116.5t3 121q0 70 -2 122 t-10 124.5t-25.5 124t-44 100.5t-71.5 73.5t-105 24.5q-76 0 -126 -45t-72.5 -128t-29.5 -160t-7 -183zM407 1315q-20 23 9 51l155 164l78 90q12 12 22.5 12.5t22.5 -12.5l78 -90l156 -164q29 -29 8 -51q-16 -20 -51 2l-213 158l-213 -158q-36 -22 -52 -2z" />
<glyph unicode="&#xd5;" horiz-adv-x="1333" d="M109 608q0 274 144 457.5t417 183.5q279 0 417 -174t138 -454q0 -274 -142.5 -457.5t-414.5 -183.5q-279 0 -419 174.5t-140 453.5zM422 641q0 -86 3 -148.5t17.5 -148.5t40 -140t74.5 -93t119 -39q53 0 94 20.5t65.5 61.5t42 87t24.5 109.5t10 116.5t3 121q0 70 -2 122 t-10 124.5t-25.5 124t-44 100.5t-71.5 73.5t-105 24.5q-76 0 -126 -45t-72.5 -128t-29.5 -160t-7 -183zM352 1372q0 90 40 158t118 68q59 0 166.5 -61.5t144.5 -61.5q63 0 64 82q0 23 45 22.5t45 -22.5q0 -90 -41 -157.5t-119 -67.5q-61 0 -168.5 61t-140.5 61 q-68 0 -68 -82q0 -23 -43 -23t-43 23z" />
<glyph unicode="&#xd6;" horiz-adv-x="1333" d="M109 608q0 274 144 457.5t417 183.5q279 0 417 -174t138 -454q0 -274 -142.5 -457.5t-414.5 -183.5q-279 0 -419 174.5t-140 453.5zM422 641q0 -86 3 -148.5t17.5 -148.5t40 -140t74.5 -93t119 -39q53 0 94 20.5t65.5 61.5t42 87t24.5 109.5t10 116.5t3 121q0 70 -2 122 t-10 124.5t-25.5 124t-44 100.5t-71.5 73.5t-105 24.5q-76 0 -126 -45t-72.5 -128t-29.5 -160t-7 -183zM414 1413q0 39 31.5 68t70.5 29q33 0 55.5 -20.5t22.5 -53.5q0 -39 -31 -68.5t-72 -29.5q-33 0 -55 21t-22 54zM745 1413q0 39 32 68t71 29q33 0 55.5 -20.5t22.5 -53.5 q0 -39 -31 -68.5t-72 -29.5q-33 0 -55.5 21t-22.5 54z" />
<glyph unicode="&#xd7;" horiz-adv-x="831" d="M88 229q-16 16 0 29l225 201l-225 200q-16 12 0 29l98 98q16 16 29 0l201 -225l200 225q12 16 29 0l98 -98q16 -16 0 -29l-225 -200l225 -201q16 -12 0 -29l-98 -98q-16 -16 -29 0l-200 225l-201 -225q-12 -16 -29 0z" />
<glyph unicode="&#xd8;" horiz-adv-x="1333" d="M109 608q0 274 144 457.5t417 183.5q123 0 227 -39l53 105q6 18 29 8l80 -41q16 -10 8 -29l-55 -106q213 -162 213 -526q0 -274 -142.5 -457.5t-414.5 -183.5q-133 0 -242 45l-55 -109q-8 -16 -27 -8l-70 35q-20 8 -8 26l58 113q-215 164 -215 526zM422 641 q0 -205 24 -319l379 749q-59 86 -168 86q-76 0 -126 -45t-72.5 -128t-29.5 -160t-7 -183zM502 170q63 -98 174 -98q53 0 94 20.5t65.5 61.5t42 87t24.5 109.5t10 116.5t3 121q0 211 -24 325z" />
<glyph unicode="&#xd9;" horiz-adv-x="1331" d="M14 1208q0 20 33 21h551q33 0 33 -21q0 -14 -33 -22l-63 -12q-29 -4 -48.5 -30t-19.5 -63l-2 -688q0 -139 66.5 -218t168.5 -79q98 0 169 67.5t69 209.5l-6 688q0 88 -53 117q-37 20 -37 30q0 20 37 21h399q33 0 33 -21q0 -14 -33 -22l-49 -12q-70 -18 -70 -93l-14 -702 q-4 -195 -124 -297t-329 -102q-240 0 -372 101t-134 298l-8 704q0 35 -19.5 60.5t-47.5 30.5l-64 12q-33 8 -33 22zM339 1561.5q-1 25.5 19 58.5q18 31 50 41t48 -4l383 -315q10 -6 5 -17l-13 -18q-4 -6 -16 -4l-457 223q-18 10 -19 35.5z" />
<glyph unicode="&#xda;" horiz-adv-x="1331" d="M14 1208q0 20 33 21h551q33 0 33 -21q0 -14 -33 -22l-63 -12q-29 -4 -48.5 -30t-19.5 -63l-2 -688q0 -139 66.5 -218t168.5 -79q98 0 169 67.5t69 209.5l-6 688q0 88 -53 117q-37 20 -37 30q0 20 37 21h399q33 0 33 -21q0 -14 -33 -22l-49 -12q-70 -18 -70 -93l-14 -702 q-4 -195 -124 -297t-329 -102q-240 0 -372 101t-134 298l-8 704q0 35 -19.5 60.5t-47.5 30.5l-64 12q-33 8 -33 22zM512 1325q-6 10 4 17l383 315q16 14 48 4t50 -41q20 -33 19.5 -58.5t-19.5 -35.5l-457 -223q-12 -2 -16 4z" />
<glyph unicode="&#xdb;" horiz-adv-x="1331" d="M14 1208q0 20 33 21h551q33 0 33 -21q0 -14 -33 -22l-63 -12q-29 -4 -48.5 -30t-19.5 -63l-2 -688q0 -139 66.5 -218t168.5 -79q98 0 169 67.5t69 209.5l-6 688q0 88 -53 117q-37 20 -37 30q0 20 37 21h399q33 0 33 -21q0 -14 -33 -22l-49 -12q-70 -18 -70 -93l-14 -702 q-4 -195 -124 -297t-329 -102q-240 0 -372 101t-134 298l-8 704q0 35 -19.5 60.5t-47.5 30.5l-64 12q-33 8 -33 22zM423 1315q-20 23 9 51l155 164l78 90q12 12 22.5 12.5t22.5 -12.5l78 -90l156 -164q29 -29 8 -51q-16 -20 -51 2l-213 158l-213 -158q-36 -22 -52 -2z" />
<glyph unicode="&#xdc;" horiz-adv-x="1331" d="M14 1208q0 20 33 21h551q33 0 33 -21q0 -14 -33 -22l-63 -12q-29 -4 -48.5 -30t-19.5 -63l-2 -688q0 -139 66.5 -218t168.5 -79q98 0 169 67.5t69 209.5l-6 688q0 88 -53 117q-37 20 -37 30q0 20 37 21h399q33 0 33 -21q0 -14 -33 -22l-49 -12q-70 -18 -70 -93l-14 -702 q-4 -195 -124 -297t-329 -102q-240 0 -372 101t-134 298l-8 704q0 35 -19.5 60.5t-47.5 30.5l-64 12q-33 8 -33 22zM439 1413q0 39 31.5 68t70.5 29q33 0 55.5 -20.5t22.5 -53.5q0 -39 -31 -68.5t-72 -29.5q-33 0 -55 21t-22 54zM770 1413q0 39 32 68t71 29q33 0 55.5 -20.5 t22.5 -53.5q0 -39 -31 -68.5t-72 -29.5q-33 0 -55.5 21t-22.5 54z" />
<glyph unicode="&#xdd;" horiz-adv-x="1228" d="M-76 1210q0 18 33 19h557q37 0 37 -19q0 -20 -33 -24q-74 -18 -82 -23q-20 -10 -20 -33q0 -18 4 -26l244 -395q4 -6 12 -6.5t12 6.5l199 352q18 33 18 53q0 53 -82 72q-37 8 -37 24q0 18 35 19h389q37 0 37 -19q0 -14 -49 -30q-39 -12 -61 -50l-353 -563q-14 -23 -14 -43 v-377q0 -82 64 -92l84 -12q37 -4 36 -23q0 -20 -32 -20h-590q-37 0 -37 18q0 20 33 25l84 12q31 4 51 30t20 62v347q0 25 -12 43l-360 555q-55 84 -129 92l-21 2q-37 4 -37 24zM490 1325q-6 10 4 17l383 315q16 14 48 4t50 -41q20 -33 19.5 -58.5t-19.5 -35.5l-457 -223 q-12 -2 -16 4z" />
<glyph unicode="&#xde;" horiz-adv-x="1169" d="M29 1210.5q0 18.5 32 18.5h480q33 0 32.5 -18.5t-34.5 -24.5q-61 -14 -62 -92v-80q0 -31 27 -31h166q190 0 311 -84t121 -258q0 -162 -130 -263.5t-388 -101.5h-80q-27 0 -27 -30v-99q0 -37 20.5 -62.5t49.5 -29.5l63 -12q29 -6 29 -24.5t-33 -18.5h-481q-33 0 -33 18.5 t35 24.5q61 14 61 92l2 459l-2 487q0 37 -20.5 62.5t-48.5 30.5l-62 12q-28 6 -28 24.5zM477 399q0 -14 12.5 -25.5t26.5 -11.5h31q39 0 80 12.5t85 41t71.5 89t27.5 142.5q0 121 -72.5 182.5t-171.5 61.5h-39q-51 0 -51 -39v-453z" />
<glyph unicode="&#xdf;" horiz-adv-x="1153" d="M-4 20q0 14 33 23l65 12q68 14 68 92v750q0 174 115.5 268.5t318.5 94.5q408 0 408 -238q0 -78 -52 -137q-35 -41 -95 -76t-98 -60.5t-38 -58.5q0 -43 59.5 -92t130 -92t130 -124t59.5 -179q0 -223 -307 -223q-61 0 -124 10t-96 18l-30 10q-27 4 -27 23l-6 109 q-10 100 -10 116q0 25 22 25q18 0 27 -23q41 -115 87 -161t130 -46q45 0 69.5 29t24.5 76q0 53 -59.5 108.5t-129 100.5t-129 119.5t-59.5 158.5q0 41 26 72t61.5 54.5t71.5 50t61.5 74.5t25.5 113.5t-33.5 112t-103.5 46.5q-96 0 -132 -58.5t-36 -202.5v-755l8 -135 q0 -25 -26 -25h-377q-33 0 -33 20z" />
<glyph unicode="&#xe0;" d="M90 201q0 63 35 120.5t106 88.5q33 14 240 75q109 33 109 105v67q0 129 -119 129q-113 0 -170.5 -51t-81.5 -168q-4 -14 -23 -14q-20 0 -20 16l-2 267q0 20 20 20q20 2 128 13.5t159 11.5q190 0 280.5 -68t90.5 -238v-428q0 -78 65 -92l62 -12q33 -8 32 -23 q0 -20 -32 -20h-303q-23 0 -35 23l-17 30q-10 16 -16 16.5t-20 -10.5q-86 -80 -215.5 -79.5t-201 56.5t-71.5 165zM340 211q0 -121 94 -121q72 0 109 57.5t37 114.5v135q0 19 -12 20q-5 0 -11 -3l-108 -54q-109 -53 -109 -149zM169 1233.5q-1 25.5 19 58.5q18 31 50 41 t48 -4l383 -315q10 -6 5 -17l-13 -18q-4 -6 -16 -4l-457 223q-18 10 -19 35.5z" />
<glyph unicode="&#xe1;" d="M90 201q0 63 35 120.5t106 88.5q33 14 240 75q109 33 109 105v67q0 129 -119 129q-113 0 -170.5 -51t-81.5 -168q-4 -14 -23 -14q-20 0 -20 16l-2 267q0 20 20 20q20 2 128 13.5t159 11.5q190 0 280.5 -68t90.5 -238v-428q0 -78 65 -92l62 -12q33 -8 32 -23 q0 -20 -32 -20h-303q-23 0 -35 23l-17 30q-10 16 -16 16.5t-20 -10.5q-86 -80 -215.5 -79.5t-201 56.5t-71.5 165zM340 211q0 -121 94 -121q72 0 109 57.5t37 114.5v135q0 19 -12 20q-5 0 -11 -3l-108 -54q-109 -53 -109 -149zM291 997q-6 10 4 17l383 315q16 14 48 4 t50 -41q20 -33 19.5 -58.5t-19.5 -35.5l-457 -223q-12 -2 -16 4z" />
<glyph unicode="&#xe2;" d="M90 201q0 63 35 120.5t106 88.5q33 14 240 75q109 33 109 105v67q0 129 -119 129q-113 0 -170.5 -51t-81.5 -168q-4 -14 -23 -14q-20 0 -20 16l-2 267q0 20 20 20q20 2 128 13.5t159 11.5q190 0 280.5 -68t90.5 -238v-428q0 -78 65 -92l62 -12q33 -8 32 -23 q0 -20 -32 -20h-303q-23 0 -35 23l-17 30q-10 16 -16 16.5t-20 -10.5q-86 -80 -215.5 -79.5t-201 56.5t-71.5 165zM340 211q0 -121 94 -121q72 0 109 57.5t37 114.5v135q0 19 -12 20q-5 0 -11 -3l-108 -54q-109 -53 -109 -149zM219 987q-20 23 9 51l155 164l78 90 q12 12 22.5 12.5t22.5 -12.5l78 -90l156 -164q29 -29 8 -51q-16 -20 -51 2l-213 158l-213 -158q-36 -22 -52 -2z" />
<glyph unicode="&#xe3;" d="M90 201q0 63 35 120.5t106 88.5q33 14 240 75q109 33 109 105v67q0 129 -119 129q-113 0 -170.5 -51t-81.5 -168q-4 -14 -23 -14q-20 0 -20 16l-2 267q0 20 20 20q20 2 128 13.5t159 11.5q190 0 280.5 -68t90.5 -238v-428q0 -78 65 -92l62 -12q33 -8 32 -23 q0 -20 -32 -20h-303q-23 0 -35 23l-17 30q-10 16 -16 16.5t-20 -10.5q-86 -80 -215.5 -79.5t-201 56.5t-71.5 165zM340 211q0 -121 94 -121q72 0 109 57.5t37 114.5v135q0 19 -12 20q-5 0 -11 -3l-108 -54q-109 -53 -109 -149zM188 1044q0 90 40 158t118 68 q59 0 166.5 -61.5t144.5 -61.5q63 0 64 82q0 23 45 22.5t45 -22.5q0 -90 -41 -157.5t-119 -67.5q-61 0 -168.5 61t-140.5 61q-68 0 -68 -82q0 -23 -43 -23t-43 23z" />
<glyph unicode="&#xe4;" d="M90 201q0 63 35 120.5t106 88.5q33 14 240 75q109 33 109 105v67q0 129 -119 129q-113 0 -170.5 -51t-81.5 -168q-4 -14 -23 -14q-20 0 -20 16l-2 267q0 20 20 20q20 2 128 13.5t159 11.5q190 0 280.5 -68t90.5 -238v-428q0 -78 65 -92l62 -12q33 -8 32 -23 q0 -20 -32 -20h-303q-23 0 -35 23l-17 30q-10 16 -16 16.5t-20 -10.5q-86 -80 -215.5 -79.5t-201 56.5t-71.5 165zM340 211q0 -121 94 -121q72 0 109 57.5t37 114.5v135q0 19 -12 20q-5 0 -11 -3l-108 -54q-109 -53 -109 -149zM238 1085q0 39 31.5 68t70.5 29 q33 0 55.5 -20.5t22.5 -53.5q0 -39 -31 -68.5t-72 -29.5q-33 0 -55 21t-22 54zM569 1085q0 39 32 68t71 29q33 0 55.5 -20.5t22.5 -53.5q0 -39 -31 -68.5t-72 -29.5q-33 0 -55.5 21t-22.5 54z" />
<glyph unicode="&#xe5;" d="M90 201q0 63 35 120.5t106 88.5q33 14 240 75q109 33 109 105v67q0 129 -119 129q-113 0 -170.5 -51t-81.5 -168q-4 -14 -23 -14q-20 0 -20 16l-2 267q0 20 20 20q20 2 128 13.5t159 11.5q190 0 280.5 -68t90.5 -238v-428q0 -78 65 -92l62 -12q33 -8 32 -23 q0 -20 -32 -20h-303q-23 0 -35 23l-17 30q-10 16 -16 16.5t-20 -10.5q-86 -80 -215.5 -79.5t-201 56.5t-71.5 165zM340 211q0 -121 94 -121q72 0 109 57.5t37 114.5v135q0 19 -12 20q-5 0 -11 -3l-108 -54q-109 -53 -109 -149zM297 1153q0 72 56.5 120t138.5 48t138 -48 t56 -120t-56 -121t-138 -49t-138.5 49t-56.5 121zM393 1153q0 -37 29 -59.5t70 -22.5t69.5 22.5t28.5 59.5t-28.5 58.5t-69.5 21.5t-70 -21.5t-29 -58.5z" />
<glyph unicode="&#xe6;" horiz-adv-x="1439" d="M90 201q0 63 35 120.5t106 88.5q33 14 240 75q109 33 109 105v72q0 129 -119 129q-115 0 -171.5 -50.5t-80.5 -165.5q-4 -14 -23 -14q-20 0 -20 17l-2 258q0 20 20 20q20 2 128 13.5t159 11.5q197 0 285 -74q102 74 239 74q160 0 265.5 -95.5t105.5 -289.5 q0 -23 -15.5 -42.5t-33.5 -19.5h-426q-16 0 -29.5 -12t-13.5 -29q4 -307 182 -307q131 0 223 125q2 4 9.5 6t9.5 -2l51 -37q10 -6 2 -18q-39 -78 -135 -129t-201 -51q-195 0 -313 145q-84 -145 -303 -145q-283 0 -283 221zM340 211q0 -129 94 -129q72 0 109 57.5t37 114.5 v143q0 27 -23 17l-108 -54q-109 -53 -109 -149zM852 547q0 -33 31 -33q27 -2 49 -2h53q41 0 64 8q51 18 51 62q0 217 -105 217q-61 0 -98 -67.5t-45 -184.5z" />
<glyph unicode="&#xe7;" horiz-adv-x="892" d="M78 438q0 199 120.5 321t307.5 122q57 0 151.5 -10.5t116.5 -12.5q18 0 19 -20l-2 -267q0 -25 -23 -24q-25 0 -27 18q-25 115 -74 172.5t-141 57.5q-80 0 -128 -98.5t-48 -266.5q0 -340 178 -340q131 0 222 121q8 10 24 0l47 -37q4 -4 4 -8q0 -3 -2 -6q-43 -80 -134 -130 t-202 -50q-160 0 -284.5 115.5t-124.5 342.5zM360 -395l13 28q6 12 18 7q33 -16 72 -17q12 0 24 12.5t12 36.5q0 39 -54 103.5t-54 126.5q0 35 18 55q14 18 43 18q25 0 25 -12q0 -6 -2 -8q-18 -18 -19 -35q0 -25 49.5 -63.5t97.5 -86t48 -96.5q0 -51 -47 -80.5t-123 -29.5 q-66 0 -115 26q-10 7 -6 15z" />
<glyph unicode="&#xe8;" horiz-adv-x="940" d="M78 434q0 199 117.5 323t300.5 124q160 0 265 -95.5t105 -289.5q0 -25 -15 -43.5t-34 -18.5h-426q-16 0 -29.5 -12t-13.5 -29q4 -307 182 -307q131 0 224 125q10 12 22 2l47 -35q6 -6 2 -18q-41 -78 -136 -129t-200 -51q-162 0 -286.5 114.5t-124.5 339.5zM352 543 q0 -29 31 -29q27 -2 49 -2h53q41 0 64 8q51 18 51 62q0 213 -104 213q-61 0 -100 -66q-44 -76 -44 -186zM155 1233.5q-1 25.5 19 58.5q18 31 50 41t48 -4l383 -315q10 -6 5 -17l-13 -18q-4 -6 -16 -4l-457 223q-18 10 -19 35.5z" />
<glyph unicode="&#xe9;" horiz-adv-x="940" d="M78 434q0 199 117.5 323t300.5 124q160 0 265 -95.5t105 -289.5q0 -25 -15 -43.5t-34 -18.5h-426q-16 0 -29.5 -12t-13.5 -29q4 -307 182 -307q131 0 224 125q10 12 22 2l47 -35q6 -6 2 -18q-41 -78 -136 -129t-200 -51q-162 0 -286.5 114.5t-124.5 339.5zM352 543 q0 -29 31 -29q27 -2 49 -2h53q41 0 64 8q51 18 51 62q0 213 -104 213q-61 0 -100 -66q-44 -76 -44 -186zM299 997q-6 10 4 17l383 315q16 14 48 4t50 -41q20 -33 19.5 -58.5t-19.5 -35.5l-457 -223q-12 -2 -16 4z" />
<glyph unicode="&#xea;" horiz-adv-x="940" d="M78 434q0 199 117.5 323t300.5 124q160 0 265 -95.5t105 -289.5q0 -25 -15 -43.5t-34 -18.5h-426q-16 0 -29.5 -12t-13.5 -29q4 -307 182 -307q131 0 224 125q10 12 22 2l47 -35q6 -6 2 -18q-41 -78 -136 -129t-200 -51q-162 0 -286.5 114.5t-124.5 339.5zM352 543 q0 -29 31 -29q27 -2 49 -2h53q41 0 64 8q51 18 51 62q0 213 -104 213q-61 0 -100 -66q-44 -76 -44 -186zM225 985q-20 23 9 51l155 164l78 90q12 12 22.5 12.5t22.5 -12.5l78 -90l156 -164q29 -29 8 -51q-16 -20 -51 2l-213 158l-213 -158q-36 -22 -52 -2z" />
<glyph unicode="&#xeb;" horiz-adv-x="940" d="M78 434q0 199 117.5 323t300.5 124q160 0 265 -95.5t105 -289.5q0 -25 -15 -43.5t-34 -18.5h-426q-16 0 -29.5 -12t-13.5 -29q4 -307 182 -307q131 0 224 125q10 12 22 2l47 -35q6 -6 2 -18q-41 -78 -136 -129t-200 -51q-162 0 -286.5 114.5t-124.5 339.5zM352 543 q0 -29 31 -29q27 -2 49 -2h53q41 0 64 8q51 18 51 62q0 213 -104 213q-61 0 -100 -66q-44 -76 -44 -186zM244 1085q0 39 31.5 68t70.5 29q33 0 55.5 -20.5t22.5 -53.5q0 -39 -31 -68.5t-72 -29.5q-33 0 -55 21t-22 54zM575 1085q0 39 32 68t71 29q33 0 55.5 -20.5 t22.5 -53.5q0 -39 -31 -68.5t-72 -29.5q-33 0 -55.5 21t-22.5 54z" />
<glyph unicode="&#xec;" horiz-adv-x="671" d="M45 18q0 16 33 25l63 12q68 14 68 92v568q0 76 -68 90l-57 12q-33 8 -33 23q0 20 33 20h367q29 0 28 -24l-8 -136v-553q0 -37 19.5 -62.5t48.5 -29.5l84 -12q33 -4 32 -25q0 -18 -32 -18h-545q-33 0 -33 18zM-42 1231.5q-1 25.5 19 58.5q18 31 50 41t48 -4l383 -315 q10 -6 5 -17l-13 -18q-4 -6 -16 -4l-457 223q-18 10 -19 35.5z" />
<glyph unicode="&#xed;" horiz-adv-x="671" d="M45 18q0 16 33 25l63 12q68 14 68 92v568q0 76 -68 90l-57 12q-33 8 -33 23q0 20 33 20h367q29 0 28 -24l-8 -136v-553q0 -37 19.5 -62.5t48.5 -29.5l84 -12q33 -4 32 -25q0 -18 -32 -18h-545q-33 0 -33 18zM160 995q-6 10 4 17l383 315q16 14 48 4t50 -41 q20 -33 19.5 -58.5t-19.5 -35.5l-457 -223q-12 -2 -16 4z" />
<glyph unicode="&#xee;" horiz-adv-x="671" d="M45 18q0 16 33 25l63 12q68 14 68 92v568q0 76 -68 90l-57 12q-33 8 -33 23q0 20 33 20h367q29 0 28 -24l-8 -136v-553q0 -37 19.5 -62.5t48.5 -29.5l84 -12q33 -4 32 -25q0 -18 -32 -18h-545q-33 0 -33 18zM59 985q-20 23 9 51l155 164l78 90q12 12 22.5 12.5 t22.5 -12.5l78 -90l156 -164q29 -29 8 -51q-16 -20 -51 2l-213 158l-213 -158q-36 -22 -52 -2z" />
<glyph unicode="&#xef;" horiz-adv-x="671" d="M45 18q0 16 33 25l63 12q68 14 68 92v568q0 76 -68 90l-57 12q-33 8 -33 23q0 20 33 20h367q29 0 28 -24l-8 -136v-553q0 -37 19.5 -62.5t48.5 -29.5l84 -12q33 -4 32 -25q0 -18 -32 -18h-545q-33 0 -33 18zM80 1085q0 39 31.5 68t70.5 29q33 0 55.5 -20.5t22.5 -53.5 q0 -39 -30.5 -68.5t-71.5 -29.5q-33 0 -55.5 21t-22.5 54zM383 1085q0 39 31.5 68t70.5 29q33 0 55.5 -20.5t22.5 -53.5q0 -39 -30.5 -68.5t-71.5 -29.5q-33 0 -55.5 21t-22.5 54z" />
<glyph unicode="&#xf0;" horiz-adv-x="1024" d="M78 436q0 199 118.5 322t297.5 123q66 0 104 -17q8 -4 13 -1t3 11q-12 115 -57 189l-119 -74l-47 74l119 59q-66 63 -160 86q-25 4 -20 21l18 74q4 14 19 14q156 -12 290 -111l166 97l49 -78l-155 -70q106 -102 149 -227q66 -182 66 -381q0 -231 -116 -399t-327 -168 q-162 0 -286.5 114.5t-124.5 341.5zM348 436q0 -186 44 -271t114 -85q39 0 68.5 41t43 107.5t19.5 129t6 123.5v72q0 104 -43 160.5t-98 56.5q-82 0 -118 -80t-36 -254z" />
<glyph unicode="&#xf1;" horiz-adv-x="1138" d="M8 840q0 20 33 20h360q20 0 33 -22l10 -19q8 -14 21 -2q76 63 211 64q293 0 293 -326v-408q0 -74 67 -92l47 -12q29 -8 29 -23q0 -20 -33 -20h-405q-27 0 -27 18q0 6 4 10.5t11.5 9.5t11.5 9q25 25 24 88v453q0 176 -92 176q-61 0 -107 -46t-46 -116v-455q0 -72 63 -92 l39 -12q33 -10 33 -23q0 -20 -33 -20h-473q-33 0 -33 18q0 14 33 25l43 12q66 18 65 92v568q0 80 -65 90l-84 12q-33 5 -33 23zM252 1044q0 90 40 158t118 68q59 0 166.5 -61.5t144.5 -61.5q63 0 64 82q0 23 45 22.5t45 -22.5q0 -90 -41 -157.5t-119 -67.5q-61 0 -168.5 61 t-140.5 61q-68 0 -68 -82q0 -23 -43 -23t-43 23z" />
<glyph unicode="&#xf2;" d="M78 432q0 186 113.5 317.5t314.5 131.5t314.5 -130t113.5 -318.5t-113.5 -320.5t-314.5 -132t-314.5 132t-113.5 320zM344 459q0 -393 168 -393q51 0 84 29.5t47 86t19.5 105.5t5.5 116q0 74 -5.5 128.5t-19.5 118t-50 98t-91 34.5q-51 0 -85 -27.5t-48.5 -78.5 t-19.5 -100t-5 -117zM177 1233.5q-1 25.5 19 58.5q18 31 50 41t48 -4l383 -315q10 -6 5 -17l-13 -18q-4 -6 -16 -4l-457 223q-18 10 -19 35.5z" />
<glyph unicode="&#xf3;" d="M78 432q0 186 113.5 317.5t314.5 131.5t314.5 -130t113.5 -318.5t-113.5 -320.5t-314.5 -132t-314.5 132t-113.5 320zM344 459q0 -393 168 -393q51 0 84 29.5t47 86t19.5 105.5t5.5 116q0 74 -5.5 128.5t-19.5 118t-50 98t-91 34.5q-51 0 -85 -27.5t-48.5 -78.5 t-19.5 -100t-5 -117zM326 997q-6 10 4 17l383 315q16 14 48 4t50 -41q20 -33 19.5 -58.5t-19.5 -35.5l-457 -223q-12 -2 -16 4z" />
<glyph unicode="&#xf4;" d="M78 432q0 186 113.5 317.5t314.5 131.5t314.5 -130t113.5 -318.5t-113.5 -320.5t-314.5 -132t-314.5 132t-113.5 320zM344 459q0 -393 168 -393q51 0 84 29.5t47 86t19.5 105.5t5.5 116q0 74 -5.5 128.5t-19.5 118t-50 98t-91 34.5q-51 0 -85 -27.5t-48.5 -78.5 t-19.5 -100t-5 -117zM243 985q-20 23 9 51l155 164l78 90q12 12 22.5 12.5t22.5 -12.5l78 -90l156 -164q29 -29 8 -51q-16 -20 -51 2l-213 158l-213 -158q-36 -22 -52 -2z" />
<glyph unicode="&#xf5;" d="M78 432q0 186 113.5 317.5t314.5 131.5t314.5 -130t113.5 -318.5t-113.5 -320.5t-314.5 -132t-314.5 132t-113.5 320zM344 459q0 -393 168 -393q51 0 84 29.5t47 86t19.5 105.5t5.5 116q0 74 -5.5 128.5t-19.5 118t-50 98t-91 34.5q-51 0 -85 -27.5t-48.5 -78.5 t-19.5 -100t-5 -117zM200 1044q0 90 40 158t118 68q59 0 166.5 -61.5t144.5 -61.5q63 0 64 82q0 23 45 22.5t45 -22.5q0 -90 -41 -157.5t-119 -67.5q-61 0 -168.5 61t-140.5 61q-68 0 -68 -82q0 -23 -43 -23t-43 23z" />
<glyph unicode="&#xf6;" d="M78 432q0 186 113.5 317.5t314.5 131.5t314.5 -130t113.5 -318.5t-113.5 -320.5t-314.5 -132t-314.5 132t-113.5 320zM344 459q0 -393 168 -393q51 0 84 29.5t47 86t19.5 105.5t5.5 116q0 74 -5.5 128.5t-19.5 118t-50 98t-91 34.5q-51 0 -85 -27.5t-48.5 -78.5 t-19.5 -100t-5 -117zM252 1085q0 39 31.5 68t70.5 29q33 0 55.5 -20.5t22.5 -53.5q0 -39 -31 -68.5t-72 -29.5q-33 0 -55 21t-22 54zM583 1085q0 39 32 68t71 29q33 0 55.5 -20.5t22.5 -53.5q0 -39 -31 -68.5t-72 -29.5q-33 0 -55.5 21t-22.5 54z" />
<glyph unicode="&#xf7;" horiz-adv-x="933" d="M92 276q-2 10 5 17.5t20 7.5q20 0 28 -22q41 -123 110 -166t200 -43q68 0 121 30.5t53 90t-53.5 94t-129 54t-152.5 47.5t-130 90.5t-53 162.5q0 242 333 242l9 190q0 20 14 21l106 -7q16 0 13 -22l-17 -189l207 -18q20 -4 21 -20l4 -228q0 -25 -21 -24q-16 0 -24 18 q-37 111 -101.5 152t-181.5 41q-160 0 -160 -111q0 -47 54.5 -74.5t132.5 -47t155.5 -48.5t132 -97.5t54.5 -176.5q0 -248 -334 -260l-14 -226q0 -20 -15 -20l-106 6q-16 0 -13 22l21 222q-143 12 -244 36q-25 6 -26 27l-9 121q-6 79 -10 108z" />
<glyph unicode="&#xf8;" d="M78 432q0 186 113.5 317.5t314.5 131.5q84 0 160 -27l43 80q10 20 28 8l64 -33q23 -8 10 -28l-45 -82q168 -125 168 -367q0 -188 -113.5 -320t-314.5 -132q-86 0 -172 30l-45 -82q-10 -16 -27 -8l-53 29q-18 6 -8 26l45 86q-168 127 -168 371zM344 459q0 -113 12 -189 l246 463q-39 49 -100 49q-51 0 -85 -27.5t-48.5 -78.5t-19.5 -100t-5 -117zM401 133q41 -68 111 -67q51 0 84 29.5t47 86t19.5 105.5t5.5 116q0 119 -13 193z" />
<glyph unicode="&#xf9;" horiz-adv-x="1132" d="M27 840q0 20 32 20h406q27 0 27 -18q0 -6 -4.5 -10.5t-11.5 -9.5t-11 -9q-25 -25 -25 -88v-453q0 -176 92 -176q61 0 107.5 46t46.5 116v455q0 76 -59 92l-43 12q-29 8 -29 23q0 20 29 20h342q31 0 30 -24l-8 -136v-555q0 -78 66 -90l69 -12q31 -4 31 -23q0 -20 -33 -20 h-340q-23 0 -34 23l-11 18q-8 14 -20 2q-27 -27 -86.5 -45t-126.5 -18q-293 0 -293 325v408q0 74 -68 92l-47 12q-28 9 -28 23zM227 1233.5q-1 25.5 19 58.5q18 31 50 41t48 -4l383 -315q10 -6 5 -17l-13 -18q-4 -6 -16 -4l-457 223q-18 10 -19 35.5z" />
<glyph unicode="&#xfa;" horiz-adv-x="1132" d="M27 840q0 20 32 20h406q27 0 27 -18q0 -6 -4.5 -10.5t-11.5 -9.5t-11 -9q-25 -25 -25 -88v-453q0 -176 92 -176q61 0 107.5 46t46.5 116v455q0 76 -59 92l-43 12q-29 8 -29 23q0 20 29 20h342q31 0 30 -24l-8 -136v-555q0 -78 66 -90l69 -12q31 -4 31 -23q0 -20 -33 -20 h-340q-23 0 -34 23l-11 18q-8 14 -20 2q-27 -27 -86.5 -45t-126.5 -18q-293 0 -293 325v408q0 74 -68 92l-47 12q-28 9 -28 23zM344 997q-6 10 4 17l383 315q16 14 48 4t50 -41q20 -33 19.5 -58.5t-19.5 -35.5l-457 -223q-12 -2 -16 4z" />
<glyph unicode="&#xfb;" horiz-adv-x="1132" d="M27 840q0 20 32 20h406q27 0 27 -18q0 -6 -4.5 -10.5t-11.5 -9.5t-11 -9q-25 -25 -25 -88v-453q0 -176 92 -176q61 0 107.5 46t46.5 116v455q0 76 -59 92l-43 12q-29 8 -29 23q0 20 29 20h342q31 0 30 -24l-8 -136v-555q0 -78 66 -90l69 -12q31 -4 31 -23q0 -20 -33 -20 h-340q-23 0 -34 23l-11 18q-8 14 -20 2q-27 -27 -86.5 -45t-126.5 -18q-293 0 -293 325v408q0 74 -68 92l-47 12q-28 9 -28 23zM270 987q-20 23 9 51l155 164l78 90q12 12 22.5 12.5t22.5 -12.5l78 -90l156 -164q29 -29 8 -51q-16 -20 -51 2l-213 158l-213 -158 q-36 -22 -52 -2z" />
<glyph unicode="&#xfc;" horiz-adv-x="1132" d="M27 840q0 20 32 20h406q27 0 27 -18q0 -6 -4.5 -10.5t-11.5 -9.5t-11 -9q-25 -25 -25 -88v-453q0 -176 92 -176q61 0 107.5 46t46.5 116v455q0 76 -59 92l-43 12q-29 8 -29 23q0 20 29 20h342q31 0 30 -24l-8 -136v-555q0 -78 66 -90l69 -12q31 -4 31 -23q0 -20 -33 -20 h-340q-23 0 -34 23l-11 18q-8 14 -20 2q-27 -27 -86.5 -45t-126.5 -18q-293 0 -293 325v408q0 74 -68 92l-47 12q-28 9 -28 23zM285 1085q0 39 31.5 68t70.5 29q33 0 55.5 -20.5t22.5 -53.5q0 -39 -31 -68.5t-72 -29.5q-33 0 -55 21t-22 54zM616 1085q0 39 32 68t71 29 q33 0 55.5 -20.5t22.5 -53.5q0 -39 -31 -68.5t-72 -29.5q-33 0 -55.5 21t-22.5 54z" />
<glyph unicode="&#xfd;" horiz-adv-x="972" d="M-55 842q0 18 32 18h469q29 0 29 -18.5t-29 -24.5l-53 -14q-27 -8 -26 -39q0 -18 6 -31l164 -420q4 -8 14 -8t14 8l156 420q8 16 8 31q0 31 -31 39l-57 14q-31 8 -31 25q0 18 33 18h313q31 0 31 -18q0 -20 -24 -27q-37 -14 -56 -53l-307 -719l-72 -170 q-49 -121 -127.5 -208t-164.5 -87q-37 0 -77 10.5t-42 26.5l-11 152q0 18 13 18q2 0 31.5 -3t42.5 -3q156 0 206 155l9 25q5 14 4 30q0 32 -19 74l-311 701q-14 35 -55 43l-50 10q-32 9 -32 25zM342 997q-6 10 4 17l383 315q16 14 48 4t50 -41q20 -33 19.5 -58.5 t-19.5 -35.5l-457 -223q-12 -2 -16 4z" />
<glyph unicode="&#xfe;" horiz-adv-x="1058" d="M6 1311q0 20 33 20h367q29 0 28 -24l-8 -136v-352q0 -6 6 -9t10 1q74 70 189 70q154 0 252 -112t98 -345q0 -205 -112.5 -324.5t-270.5 -119.5q-102 0 -154 18q-18 6 -18 -14v-250q0 -76 66 -88l63 -13q33 -4 33 -22q0 -20 -33 -21h-416q-27 0 -26 19q0 6 4 10t11 9 t11 10q25 25 25 100v1448q0 76 -68 90l-57 12q-33 9 -33 23zM426 264q0 -102 39 -152.5t104 -50.5q29 0 57.5 27t56.5 114t28 222q0 340 -119 340q-53 0 -100.5 -36t-65.5 -97v-367z" />
<glyph unicode="&#xff;" horiz-adv-x="972" d="M-55 842q0 18 32 18h469q29 0 29 -18.5t-29 -24.5l-53 -14q-27 -8 -26 -39q0 -18 6 -31l164 -420q4 -8 14 -8t14 8l156 420q8 16 8 31q0 31 -31 39l-57 14q-31 8 -31 25q0 18 33 18h313q31 0 31 -18q0 -20 -24 -27q-37 -14 -56 -53l-307 -719l-72 -170 q-49 -121 -127.5 -208t-164.5 -87q-37 0 -77 10.5t-42 26.5l-11 152q0 18 13 18q2 0 31.5 -3t42.5 -3q156 0 206 155l9 25q5 14 4 30q0 32 -19 74l-311 701q-14 35 -55 43l-50 10q-32 9 -32 25zM279 1065q0 39 31.5 68t70.5 29q33 0 55.5 -20.5t22.5 -53.5q0 -39 -31 -68.5 t-72 -29.5q-33 0 -55 21t-22 54zM610 1065q0 39 32 68t71 29q33 0 55.5 -20.5t22.5 -53.5q0 -39 -31 -68.5t-72 -29.5q-33 0 -55.5 21t-22.5 54z" />
<glyph unicode="&#x131;" horiz-adv-x="671" d="M45 18q0 16 33 25l63 12q68 14 68 92v568q0 76 -68 90l-57 12q-33 8 -33 23q0 20 33 20h367q29 0 28 -24l-8 -136v-553q0 -37 19.5 -62.5t48.5 -29.5l84 -12q33 -4 32 -25q0 -18 -32 -18h-545q-33 0 -33 18z" />
<glyph unicode="&#x152;" horiz-adv-x="1789" d="M109 608q0 274 144 457.5t417 183.5q96 0 170 -20h786q18 0 23 -25l22 -297q2 -12 -5 -20t-15 -8q-20 0 -29 22q-53 135 -111.5 182t-167.5 47h-151q-20 0 -35.5 -14t-15.5 -33l-2 -358q0 -14 14 -14l305 10q20 0 21 -21v-118q0 -20 -21 -21l-307 10q-12 0 -12 -16 l2 -420q0 -14 11 -25.5t28 -11.5l202 4q76 2 126.5 17.5t80 56.5t43 76t33.5 108q6 27 33 27q12 0 20 -12.5t4 -34.5l-49 -317q-4 -23 -28 -23h-816q-70 -20 -161 -20q-279 0 -419 174.5t-140 453.5zM422 641q0 -86 3 -148.5t17.5 -148.5t40 -140t74.5 -93t119 -39 q123 0 178 112l2 432l-2 406q-61 135 -197 135q-76 0 -126 -45t-72.5 -128t-29.5 -160t-7 -183z" />
<glyph unicode="&#x153;" horiz-adv-x="1527" d="M78 432q0 186 113.5 317.5t314.5 131.5q178 0 293 -109q115 109 284 109q160 0 265.5 -95.5t105.5 -289.5q0 -23 -14.5 -42.5t-32.5 -19.5h-424q-16 0 -29.5 -12t-13.5 -29q-6 -147 42 -227t136 -80q131 0 223 125q8 12 19 4l49 -39q8 -8 4 -16q-41 -78 -136 -129 t-200 -51q-168 0 -278 110q-117 -111 -293 -110q-201 0 -314.5 132t-113.5 320zM344 459q0 -393 168 -393q51 0 84 29.5t47 86t19.5 105.5t5.5 116q0 74 -5.5 128.5t-19.5 118t-50 98t-91 34.5q-51 0 -85 -27.5t-48.5 -78.5t-19.5 -100t-5 -117zM942 547q-2 -33 31 -33 q27 -2 49 -2h51q41 0 64 8q51 18 51 62q0 217 -105 217q-61 0 -98 -67.5t-43 -184.5z" />
<glyph unicode="&#x178;" horiz-adv-x="1228" d="M-76 1210q0 18 33 19h557q37 0 37 -19q0 -20 -33 -24q-74 -18 -82 -23q-20 -10 -20 -33q0 -18 4 -26l244 -395q4 -6 12 -6.5t12 6.5l199 352q18 33 18 53q0 53 -82 72q-37 8 -37 24q0 18 35 19h389q37 0 37 -19q0 -14 -49 -30q-39 -12 -61 -50l-353 -563q-14 -23 -14 -43 v-377q0 -82 64 -92l84 -12q37 -4 36 -23q0 -20 -32 -20h-590q-37 0 -37 18q0 20 33 25l84 12q31 4 51 30t20 62v347q0 25 -12 43l-360 555q-55 84 -129 92l-21 2q-37 4 -37 24zM400 1392q0 39 31.5 68t70.5 29q33 0 55.5 -20.5t22.5 -53.5q0 -39 -31 -68.5t-72 -29.5 q-33 0 -55 21t-22 54zM731 1392q0 39 32 68t71 29q33 0 55.5 -20.5t22.5 -53.5q0 -39 -31 -68.5t-72 -29.5q-33 0 -55.5 21t-22.5 54z" />
<glyph unicode="&#x2c6;" horiz-adv-x="737" d="M104 985q-20 23 9 51l155 164l78 90q12 12 22.5 12.5t22.5 -12.5l78 -90l156 -164q29 -29 8 -51q-16 -20 -51 2l-213 158l-213 -158q-36 -22 -52 -2z" />
<glyph unicode="&#x2da;" horiz-adv-x="737" d="M174 1153q0 72 56.5 120t138.5 48t138 -48t56 -120t-56 -121t-138 -49t-138.5 49t-56.5 121zM270 1153q0 -37 29 -59.5t70 -22.5t69.5 22.5t28.5 59.5t-28.5 58.5t-69.5 21.5t-70 -21.5t-29 -58.5z" />
<glyph unicode="&#x2dc;" horiz-adv-x="737" d="M57 1044q0 90 40 158t118 68q59 0 166.5 -61.5t144.5 -61.5q63 0 64 82q0 23 45 22.5t45 -22.5q0 -90 -41 -157.5t-119 -67.5q-61 0 -168.5 61t-140.5 61q-68 0 -68 -82q0 -23 -43 -23t-43 23z" />
<glyph unicode="&#x3bc;" horiz-adv-x="1142" d="M-14 -346q0 27 34 41l41 16q55 20 87 66.5t32 101.5v834q0 74 -67 92l-47 12q-29 8 -29 23q0 20 33 20h405q27 0 27 -18q0 -6 -4 -10.5t-11.5 -9.5t-11.5 -9q-25 -25 -24 -88v-453q0 -92 20.5 -134t67.5 -42q61 0 109 46t48 116v455q0 76 -61 92l-43 12q-29 8 -29 23 q0 20 29 20h344q31 0 31 -24l-9 -136v-555q0 -78 66 -90l70 -12q31 -4 30 -23q0 -20 -32 -20h-355q-23 0 -35 23l-10 18q-8 14 -20 2q-63 -63 -199 -63q-33 0 -63 6v-19q0 -119 -97.5 -204t-228.5 -128q-27 -10 -59 -10q-39 0 -39 29z" />
<glyph unicode="&#x2013;" horiz-adv-x="802" d="M57 397v123q0 20 21 21l323 -4l324 4q20 0 20 -21v-123q0 -20 -20 -20l-324 4l-323 -4q-21 0 -21 20z" />
<glyph unicode="&#x2014;" horiz-adv-x="1232" d="M57 397v123q0 20 21 21l538 -4l539 4q20 0 21 -21v-123q0 -20 -21 -20l-539 4l-538 -4q-21 0 -21 20z" />
<glyph unicode="&#x2018;" horiz-adv-x="440" d="M74 1071q0 131 119 246q16 16 56 39.5t60 23.5q10 0 17.5 -10t7.5 -20q0 -6 -21 -23q-23 -18 -41 -41q-57 -61 -57 -135q0 -31 37 -31h35q37 0 62.5 -23.5t25.5 -60.5q0 -59 -47 -93t-103 -34q-63 0 -107 44t-44 118z" />
<glyph unicode="&#x2019;" horiz-adv-x="440" d="M66 1253q0 59 47 93t102 34q63 0 107.5 -44t44.5 -117q0 -131 -119 -246q-16 -16 -56 -40t-61 -24q-10 0 -17.5 10.5t-7.5 20.5q0 6 21 23q23 18 41 41q57 61 57 135q0 31 -37 30h-34q-37 0 -62.5 23.5t-25.5 60.5z" />
<glyph unicode="&#x201a;" horiz-adv-x="440" d="M66 160q0 59 47 93t102 34q63 0 107.5 -44t44.5 -118q0 -131 -119 -246q-16 -16 -56 -39.5t-61 -23.5q-10 0 -17.5 10t-7.5 20q0 6 21 23q23 18 41 41q57 61 57 135q0 31 -37 31h-34q-37 0 -62.5 23.5t-25.5 60.5z" />
<glyph unicode="&#x201c;" horiz-adv-x="808" d="M74 1071q0 131 119 246q16 16 56 39.5t60 23.5q10 0 17.5 -10t7.5 -20q0 -6 -21 -23q-23 -18 -41 -41q-57 -61 -57 -135q0 -31 37 -31h35q37 0 62.5 -23.5t25.5 -60.5q0 -59 -47 -93t-103 -34q-63 0 -107 44t-44 118zM442 1071q0 131 119 246q16 16 56 39.5t61 23.5 q10 0 17 -10t7 -20q0 -6 -20 -23q-23 -18 -41 -41q-57 -61 -57 -135q0 -31 37 -31h34q37 0 62.5 -23.5t25.5 -60.5q0 -59 -47 -93t-102 -34q-63 0 -107.5 44t-44.5 118z" />
<glyph unicode="&#x201d;" horiz-adv-x="808" d="M66 1253q0 59 47 93t102 34q63 0 107.5 -44t44.5 -117q0 -131 -119 -246q-16 -16 -56 -40t-61 -24q-10 0 -17.5 10.5t-7.5 20.5q0 6 21 23q23 18 41 41q57 61 57 135q0 31 -37 30h-34q-37 0 -62.5 23.5t-25.5 60.5zM434 1253q0 59 47 93t103 34q63 0 107 -44t44 -117 q0 -131 -119 -246q-16 -16 -56 -40t-60 -24q-10 0 -17.5 10.5t-7.5 20.5q0 6 21 23q23 18 41 41q57 61 57 135q0 31 -37 30h-35q-37 0 -62.5 23.5t-25.5 60.5z" />
<glyph unicode="&#x201e;" horiz-adv-x="808" d="M66 160q0 59 47 93t102 34q63 0 107.5 -44t44.5 -118q0 -131 -119 -246q-16 -16 -56 -39.5t-61 -23.5q-10 0 -17.5 10t-7.5 20q0 6 21 23q23 18 41 41q57 61 57 135q0 31 -37 31h-34q-37 0 -62.5 23.5t-25.5 60.5zM434 160q0 59 47 93t103 34q63 0 107 -44t44 -118 q0 -131 -119 -246q-16 -16 -56 -39.5t-60 -23.5q-10 0 -17.5 10t-7.5 20q0 6 21 23q23 18 41 41q57 61 57 135q0 31 -37 31h-35q-37 0 -62.5 23.5t-25.5 60.5z" />
<glyph unicode="&#x2022;" horiz-adv-x="616" d="M88 555q0 96 83 168t185 72q72 0 122 -45t50 -121q0 -94 -81.5 -169t-178.5 -75q-74 0 -127 47t-53 123z" />
<glyph unicode="&#x2026;" horiz-adv-x="1341" d="M88 82q0 55 47 94t103 39q45 0 79.5 -27.5t34.5 -72.5q0 -53 -47 -92t-102 -39q-47 0 -81 26.5t-34 71.5zM539 82q0 55 47 94t102 39q45 0 80 -27.5t35 -72.5q0 -53 -47 -92t-103 -39q-47 0 -80.5 26.5t-33.5 71.5zM989 82q0 55 47 94t103 39q45 0 79.5 -27.5t34.5 -72.5 q0 -53 -47 -92t-102 -39q-47 0 -81 26.5t-34 71.5z" />
<glyph unicode="&#x2039;" horiz-adv-x="501" d="M68 450.5q0 14.5 10 24.5l280 260q33 29 56 8q20 -18 -4 -55l-148 -237l148 -238q25 -37 4 -55q-23 -20 -56 8l-280 260q-10 10 -10 24.5z" />
<glyph unicode="&#x203a;" horiz-adv-x="501" d="M88 158q-20 18 4 55l148 238l-148 237q-25 37 -4 55q23 20 55 -8l281 -260q10 -10 10 -24.5t-10 -24.5l-281 -260q-32 -28 -55 -8z" />
<glyph unicode="&#x2122;" horiz-adv-x="1978" d="M61 1020v186q0 23 27 23h666q27 0 26 -23v-186q0 -10 -8 -18.5t-14 -8.5q-8 0 -17.5 8.5t-11.5 16.5l-14 80q-6 35 -53 39l-125 6q-4 2 -8.5 -4t-4.5 -13v-303v-297q4 -47 39 -53l55 -8q8 -2 17.5 -10.5t9.5 -14.5q0 -8 -8 -15t-19 -7h-393q-12 0 -20 7t-8 13q0 23 28 27 q29 2 51 8q41 8 41 53v297v303q0 6 -4 12.5t-8 4.5l-125 -6q-47 -4 -53 -39l-14 -80q-2 -8 -11.5 -16.5t-15.5 -8.5q-8 0 -16.5 8.5t-8.5 18.5zM821 1206q0 6 7.5 14.5t19.5 8.5h270q18 0 33 -27l227 -452q8 -16 17 2l219 450q14 27 33 27h180q23 0 22 -21q0 -8 -18 -26 q-14 -14 -14 -76l-2 -281l2 -297q0 -45 38 -53l56 -10q27 -4 26 -27q0 -20 -26 -20h-363q-29 0 -28 20q0 14 26 27l37 10q35 10 35 53l2 297v93q0 4 -3 5t-5 -3l-230 -465q-6 -10 -42.5 -10.5t-39.5 10.5l-217 469q-6 8 -10 0l12 -383q2 -63 15 -76q18 -18 18 -27 q0 -20 -22 -20h-244q-27 0 -27 22.5t25 26.5l41 8q37 8 41 53l12 469v121q0 45 -37 53l-59 9q-27 3 -27 26z" />
<glyph unicode="&#xe000;" horiz-adv-x="860" d="M0 860h860v-860h-860v860z" />
<glyph unicode="&#xfb01;" horiz-adv-x="1425" d="M72 772v68q0 20 20 20h107v232q0 131 106.5 194.5t267.5 63.5q63 0 122 -14.5t77 -32.5q10 -8 6 -48l-14 -108q-4 -23 -25 -23q-14 0 -18 13q-27 53 -70 92t-78 39q-57 0 -84.5 -38t-27.5 -95v-275h743q29 0 29 -24l-8 -136v-553q0 -37 19.5 -62.5t47.5 -29.5l84 -12 q33 -4 33 -25q0 -18 -33 -18h-545q-33 0 -32 18q0 16 32 25l64 12q68 14 68 92v515q0 39 -19.5 64.5t-48.5 25.5h-434v-605q0 -37 20.5 -62.5t48.5 -29.5l64 -12q33 -8 33 -23q0 -20 -33 -20h-420q-27 0 -27 18q0 6 4.5 10.5t11.5 9.5t11 9q25 25 25 105v600h-107 q-20 0 -20 20zM946 1178q0 55 47 91t107 36q51 0 86 -26t35 -73q0 -57 -47.5 -92t-106.5 -35q-51 0 -86 26t-35 73z" />
<glyph unicode="&#xfb02;" horiz-adv-x="1409" d="M72 772v68q0 20 20 20h107v170q0 78 25.5 136.5t67.5 92t104.5 55t124 29t138.5 7.5h99q98 0 173 -13.5t142.5 -46.5t104 -98.5t36.5 -161.5v-883q0 -74 68 -92l45 -12q31 -8 31 -23q0 -20 -33 -20h-397q-27 0 -27 18q0 6 4 10.5t11.5 9.5t11.5 9q25 25 24 105v892 q0 94 -46 150.5t-130 56.5h-135q-84 0 -132 -56t-48 -151v-184h295q20 0 20 -14v-86q0 -14 -20 -15l-295 7v-605q0 -37 20.5 -62.5t48.5 -29.5l64 -12q33 -8 33 -23q0 -20 -33 -20h-420q-27 0 -27 18q0 6 4.5 10.5t11.5 9.5t11 9q25 25 25 105v600h-107q-20 0 -20 20z" />
<glyph unicode="&#xfb03;" horiz-adv-x="2224" d="M1597 18q0 16 33 25l63 12q68 14 68 92v568q0 76 -68 90l-57 12q-33 8 -33 23q0 20 33 20h367q29 0 28 -24l-8 -136v-553q0 -37 19.5 -62.5t48.5 -29.5l84 -12q33 -4 32 -25q0 -18 -32 -18h-545q-33 0 -33 18zM1745 1178q0 55 47 91t106 36q51 0 86 -26t35 -73 q0 -57 -47 -92t-107 -35q-51 0 -85.5 26t-34.5 73zM848 772v68q0 20 20 20h107v232q0 131 106.5 194.5t267.5 63.5q63 0 122 -14.5t77 -32.5q7 -6 7 -28q0 -9 -1 -20l-14 -108q-4 -23 -25 -23q-14 0 -18 13q-27 53 -70 92t-78 39q-113 0 -112 -129v-279h280q20 0 21 -14v-86 q0 -16 -21 -17l-280 9v-605q0 -37 20.5 -62.5t48.5 -29.5l64 -12q33 -8 33 -23q0 -20 -33 -20h-420q-27 0 -27 18q0 6 4.5 10.5t11.5 9.5t11 9q25 25 25 105v600h-107q-20 0 -20 20zM72 772v68q0 20 20 20h107v232q0 131 106.5 194.5t267.5 63.5q63 0 122 -14.5t77 -32.5 q7 -6 7 -28q0 -9 -1 -20l-14 -108q-4 -23 -25 -23q-14 0 -18 13q-27 53 -70 92t-78 39q-113 0 -112 -129v-279h280q20 0 21 -14v-86q0 -16 -21 -17l-280 9v-605q0 -37 20.5 -62.5t48.5 -29.5l64 -12q33 -8 33 -23q0 -20 -33 -20h-420q-27 0 -27 18q0 6 4.5 10.5t11.5 9.5 t11 9q25 25 25 105v600h-107q-20 0 -20 20z" />
<glyph unicode="&#xfb04;" horiz-adv-x="2187" d="M1572 1311q0 20 33 20h367q29 0 29 -24l-9 -136v-1024q0 -74 68 -92l45 -12q31 -8 31 -23q0 -20 -33 -20h-397q-27 0 -27 18q0 6 4 10.5t11.5 9.5t11.5 9q25 25 24 105v1034q0 76 -67 90l-58 12q-33 9 -33 23zM848 772v68q0 20 20 20h107v232q0 131 106.5 194.5 t267.5 63.5q63 0 122 -14.5t77 -32.5q7 -6 7 -28q0 -9 -1 -20l-14 -108q-4 -23 -25 -23q-14 0 -18 13q-27 53 -70 92t-78 39q-113 0 -112 -129v-279h280q20 0 21 -14v-86q0 -16 -21 -17l-280 9v-605q0 -37 20.5 -62.5t48.5 -29.5l64 -12q33 -8 33 -23q0 -20 -33 -20h-420 q-27 0 -27 18q0 6 4.5 10.5t11.5 9.5t11 9q25 25 25 105v600h-107q-20 0 -20 20zM72 772v68q0 20 20 20h107v232q0 131 106.5 194.5t267.5 63.5q63 0 122 -14.5t77 -32.5q7 -6 7 -28q0 -9 -1 -20l-14 -108q-4 -23 -25 -23q-14 0 -18 13q-27 53 -70 92t-78 39 q-113 0 -112 -129v-279h280q20 0 21 -14v-86q0 -16 -21 -17l-280 9v-605q0 -37 20.5 -62.5t48.5 -29.5l64 -12q33 -8 33 -23q0 -20 -33 -20h-420q-27 0 -27 18q0 6 4.5 10.5t11.5 9.5t11 9q25 25 25 105v600h-107q-20 0 -20 20z" />
</font>
</defs>
</svg>
